<?xml version="1.0" encoding="UTF-8"?>
<!--Generator: Apple Native CoreSVG 123-->
<!DOCTYPE svg
PUBLIC "-//W3C//DTD SVG 1.1//EN"
       "http://www.w3.org/Graphics/SVG/1.1/DTD/svg11.dtd">
<svg version="1.1" xmlns="http://www.w3.org/2000/svg" xmlns:xlink="http://www.w3.org/1999/xlink" width="3300" height="2200">
 <!--glyph: "uni10043F.medium", point size: 100.000000, font version: "Version 15.0d7e11", template writer version: "5"-->
 <g id="Notes">
  <rect height="2200" id="artboard" style="fill:white;opacity:1" width="3300" x="0" y="0"/>
  <line id="" style="fill:none;stroke:black;opacity:1;stroke-width:0.5;" x1="263" x2="3036" y1="292" y2="292"/>
  <text style="stroke:none;fill:black;font-family:-apple-system,&quot;SF Pro Display&quot;,&quot;SF Pro Text&quot;,Helvetica,sans-serif;font-weight:bold;" transform="matrix(1 0 0 1 263 322)">Weight/Scale Variations</text>
  <text style="stroke:none;fill:black;font-family:-apple-system,&quot;SF Pro Display&quot;,&quot;SF Pro Text&quot;,Helvetica,sans-serif;text-anchor:middle;" transform="matrix(1 0 0 1 559.711 322)">Ultralight</text>
  <text style="stroke:none;fill:black;font-family:-apple-system,&quot;SF Pro Display&quot;,&quot;SF Pro Text&quot;,Helvetica,sans-serif;text-anchor:middle;" transform="matrix(1 0 0 1 856.422 322)">Thin</text>
  <text style="stroke:none;fill:black;font-family:-apple-system,&quot;SF Pro Display&quot;,&quot;SF Pro Text&quot;,Helvetica,sans-serif;text-anchor:middle;" transform="matrix(1 0 0 1 1153.13 322)">Light</text>
  <text style="stroke:none;fill:black;font-family:-apple-system,&quot;SF Pro Display&quot;,&quot;SF Pro Text&quot;,Helvetica,sans-serif;text-anchor:middle;" transform="matrix(1 0 0 1 1449.84 322)">Regular</text>
  <text style="stroke:none;fill:black;font-family:-apple-system,&quot;SF Pro Display&quot;,&quot;SF Pro Text&quot;,Helvetica,sans-serif;text-anchor:middle;" transform="matrix(1 0 0 1 1746.56 322)">Medium</text>
  <text style="stroke:none;fill:black;font-family:-apple-system,&quot;SF Pro Display&quot;,&quot;SF Pro Text&quot;,Helvetica,sans-serif;text-anchor:middle;" transform="matrix(1 0 0 1 2043.27 322)">Semibold</text>
  <text style="stroke:none;fill:black;font-family:-apple-system,&quot;SF Pro Display&quot;,&quot;SF Pro Text&quot;,Helvetica,sans-serif;text-anchor:middle;" transform="matrix(1 0 0 1 2339.98 322)">Bold</text>
  <text style="stroke:none;fill:black;font-family:-apple-system,&quot;SF Pro Display&quot;,&quot;SF Pro Text&quot;,Helvetica,sans-serif;text-anchor:middle;" transform="matrix(1 0 0 1 2636.69 322)">Heavy</text>
  <text style="stroke:none;fill:black;font-family:-apple-system,&quot;SF Pro Display&quot;,&quot;SF Pro Text&quot;,Helvetica,sans-serif;text-anchor:middle;" transform="matrix(1 0 0 1 2933.4 322)">Black</text>
  <line id="" style="fill:none;stroke:black;opacity:1;stroke-width:0.5;" x1="263" x2="3036" y1="1903" y2="1903"/>
  <g id="" transform="matrix(1 0 0 1 263 1933)">
   <path d="M 9.24805 0.830078 C 13.5547 0.830078 17.1387 -2.74414 17.1387 -7.05078 C 17.1387 -11.3574 13.5449 -14.9316 9.23828 -14.9316 C 4.94141 -14.9316 1.36719 -11.3574 1.36719 -7.05078 C 1.36719 -2.74414 4.95117 0.830078 9.24805 0.830078 Z M 9.24805 -0.654297 C 5.70312 -0.654297 2.87109 -3.49609 2.87109 -7.05078 C 2.87109 -10.6055 5.69336 -13.4473 9.23828 -13.4473 C 12.793 -13.4473 15.6348 -10.6055 15.6445 -7.05078 C 15.6543 -3.49609 12.8027 -0.654297 9.24805 -0.654297 Z M 9.22852 -3.42773 C 9.69727 -3.42773 9.9707 -3.74023 9.9707 -4.25781 L 9.9707 -6.31836 L 12.1973 -6.31836 C 12.6953 -6.31836 13.0371 -6.57227 13.0371 -7.04102 C 13.0371 -7.51953 12.7148 -7.7832 12.1973 -7.7832 L 9.9707 -7.7832 L 9.9707 -10.0098 C 9.9707 -10.5273 9.69727 -10.8496 9.22852 -10.8496 C 8.75977 -10.8496 8.50586 -10.5078 8.50586 -10.0098 L 8.50586 -7.7832 L 6.29883 -7.7832 C 5.78125 -7.7832 5.44922 -7.51953 5.44922 -7.04102 C 5.44922 -6.57227 5.80078 -6.31836 6.29883 -6.31836 L 8.50586 -6.31836 L 8.50586 -4.25781 C 8.50586 -3.75977 8.75977 -3.42773 9.22852 -3.42773 Z"/>
  </g>
  <g id="" transform="matrix(1 0 0 1 281.506 1933)">
   <path d="M 11.709 2.91016 C 17.1582 2.91016 21.6699 -1.60156 21.6699 -7.05078 C 21.6699 -12.4902 17.1484 -17.0117 11.6992 -17.0117 C 6.25977 -17.0117 1.74805 -12.4902 1.74805 -7.05078 C 1.74805 -1.60156 6.26953 2.91016 11.709 2.91016 Z M 11.709 1.25 C 7.09961 1.25 3.41797 -2.44141 3.41797 -7.05078 C 3.41797 -11.6504 7.08984 -15.3516 11.6992 -15.3516 C 16.3086 -15.3516 20 -11.6504 20.0098 -7.05078 C 20.0195 -2.44141 16.3184 1.25 11.709 1.25 Z M 11.6895 -2.41211 C 12.207 -2.41211 12.5195 -2.77344 12.5195 -3.33984 L 12.5195 -6.23047 L 15.5762 -6.23047 C 16.123 -6.23047 16.5039 -6.51367 16.5039 -7.03125 C 16.5039 -7.55859 16.1426 -7.86133 15.5762 -7.86133 L 12.5195 -7.86133 L 12.5195 -10.9277 C 12.5195 -11.5039 12.207 -11.8555 11.6895 -11.8555 C 11.1719 -11.8555 10.8789 -11.4844 10.8789 -10.9277 L 10.8789 -7.86133 L 7.83203 -7.86133 C 7.26562 -7.86133 6.89453 -7.55859 6.89453 -7.03125 C 6.89453 -6.51367 7.28516 -6.23047 7.83203 -6.23047 L 10.8789 -6.23047 L 10.8789 -3.33984 C 10.8789 -2.79297 11.1719 -2.41211 11.6895 -2.41211 Z"/>
  </g>
  <g id="" transform="matrix(1 0 0 1 304.924 1933)">
   <path d="M 14.9707 5.67383 C 21.9336 5.67383 27.6953 -0.078125 27.6953 -7.04102 C 27.6953 -14.0039 21.9238 -19.7559 14.9609 -19.7559 C 8.00781 -19.7559 2.25586 -14.0039 2.25586 -7.04102 C 2.25586 -0.078125 8.01758 5.67383 14.9707 5.67383 Z M 14.9707 3.85742 C 8.93555 3.85742 4.08203 -1.00586 4.08203 -7.04102 C 4.08203 -13.0762 8.92578 -17.9395 14.9609 -17.9395 C 21.0059 -17.9395 25.8594 -13.0762 25.8691 -7.04102 C 25.8789 -1.00586 21.0156 3.85742 14.9707 3.85742 Z M 14.9512 -1.06445 C 15.5176 -1.06445 15.8691 -1.45508 15.8691 -2.06055 L 15.8691 -6.13281 L 20.1074 -6.13281 C 20.6934 -6.13281 21.1133 -6.46484 21.1133 -7.02148 C 21.1133 -7.59766 20.7227 -7.93945 20.1074 -7.93945 L 15.8691 -7.93945 L 15.8691 -12.1875 C 15.8691 -12.8027 15.5176 -13.1934 14.9512 -13.1934 C 14.3848 -13.1934 14.0625 -12.7832 14.0625 -12.1875 L 14.0625 -7.93945 L 9.83398 -7.93945 C 9.21875 -7.93945 8.80859 -7.59766 8.80859 -7.02148 C 8.80859 -6.46484 9.23828 -6.13281 9.83398 -6.13281 L 14.0625 -6.13281 L 14.0625 -2.06055 C 14.0625 -1.47461 14.3848 -1.06445 14.9512 -1.06445 Z"/>
  </g>
  <text style="stroke:none;fill:black;font-family:-apple-system,&quot;SF Pro Display&quot;,&quot;SF Pro Text&quot;,Helvetica,sans-serif;font-weight:bold;" transform="matrix(1 0 0 1 263 1953)">Design Variations</text>
  <text style="stroke:none;fill:black;font-family:-apple-system,&quot;SF Pro Display&quot;,&quot;SF Pro Text&quot;,Helvetica,sans-serif;" transform="matrix(1 0 0 1 263 1971)">Symbols are supported in up to nine weights and three scales.</text>
  <text style="stroke:none;fill:black;font-family:-apple-system,&quot;SF Pro Display&quot;,&quot;SF Pro Text&quot;,Helvetica,sans-serif;" transform="matrix(1 0 0 1 263 1989)">For optimal layout with text and other symbols, vertically align</text>
  <text style="stroke:none;fill:black;font-family:-apple-system,&quot;SF Pro Display&quot;,&quot;SF Pro Text&quot;,Helvetica,sans-serif;" transform="matrix(1 0 0 1 263 2007)">symbols with the adjacent text.</text>
  <rect height="14" id="" style="fill:#00AEEF;stroke:none;opacity:0.4;" width="3" x="776" y="1919"/>
  <g id="" transform="matrix(1 0 0 1 779 1933)">
   <path d="M 10.5273 0 L 12.373 0 L 7.17773 -14.0918 L 5.43945 -14.0918 L 0.244141 0 L 2.08984 0 L 3.50586 -4.0332 L 9.11133 -4.0332 Z M 6.2793 -11.9531 L 6.33789 -11.9531 L 8.59375 -5.52734 L 4.02344 -5.52734 Z"/>
  </g>
  <rect height="14" id="" style="fill:#00AEEF;stroke:none;opacity:0.4;" width="3" x="791.617" y="1919"/>
  <text style="stroke:none;fill:black;font-family:-apple-system,&quot;SF Pro Display&quot;,&quot;SF Pro Text&quot;,Helvetica,sans-serif;font-weight:bold;" transform="matrix(1 0 0 1 776 1953)">Margins</text>
  <text style="stroke:none;fill:black;font-family:-apple-system,&quot;SF Pro Display&quot;,&quot;SF Pro Text&quot;,Helvetica,sans-serif;" transform="matrix(1 0 0 1 776 1971)">Leading and trailing margins on the left and right side of each symbol</text>
  <text style="stroke:none;fill:black;font-family:-apple-system,&quot;SF Pro Display&quot;,&quot;SF Pro Text&quot;,Helvetica,sans-serif;" transform="matrix(1 0 0 1 776 1989)">can be adjusted by modifying the width of the blue rectangles.</text>
  <text style="stroke:none;fill:black;font-family:-apple-system,&quot;SF Pro Display&quot;,&quot;SF Pro Text&quot;,Helvetica,sans-serif;" transform="matrix(1 0 0 1 776 2007)">Modifications are automatically applied proportionally to all</text>
  <text style="stroke:none;fill:black;font-family:-apple-system,&quot;SF Pro Display&quot;,&quot;SF Pro Text&quot;,Helvetica,sans-serif;" transform="matrix(1 0 0 1 776 2025)">scales and weights.</text>
  <g id="" transform="matrix(1 0 0 1 1289 1933)">
   <path d="M 2.83203 3.11523 L 4.375 4.6582 C 5.22461 5.48828 6.19141 5.41992 7.06055 4.46289 L 17.2754 -6.66016 C 17.7051 -6.36719 18.0957 -6.37695 18.5645 -6.47461 L 19.6094 -6.68945 L 20.3027 -5.99609 L 20.2539 -5.47852 C 20.1855 -4.95117 20.3516 -4.53125 20.8496 -4.0332 L 21.6602 -3.22266 C 22.168 -2.71484 22.8223 -2.68555 23.3008 -3.16406 L 26.5527 -6.41602 C 27.0312 -6.89453 27.0117 -7.54883 26.5039 -8.05664 L 25.6836 -8.87695 C 25.1855 -9.375 24.7754 -9.55078 24.2383 -9.47266 L 23.7109 -9.41406 L 23.0566 -10.0781 L 23.3398 -11.2207 C 23.4863 -11.7871 23.3398 -12.2559 22.7148 -12.8613 L 20.3027 -15.2539 C 16.7578 -18.7793 12.2266 -18.6719 9.11133 -15.5371 C 8.69141 -15.1074 8.64258 -14.5215 8.91602 -14.0918 C 9.15039 -13.7207 9.62891 -13.4961 10.2734 -13.6621 C 11.7871 -14.043 13.3008 -13.9258 14.7852 -12.9199 L 14.1602 -11.3379 C 13.9258 -10.752 13.9453 -10.2734 14.1797 -9.83398 L 3.01758 0.439453 C 2.08008 1.30859 1.97266 2.25586 2.83203 3.11523 Z M 10.6738 -15.1465 C 13.3398 -17.1387 16.6504 -16.8262 19.0527 -14.4141 L 21.6797 -11.8066 C 21.9141 -11.5723 21.9434 -11.3867 21.8848 -11.0938 L 21.5039 -9.53125 L 23.0762 -7.95898 L 24.043 -8.04688 C 24.3262 -8.07617 24.4141 -8.05664 24.6387 -7.83203 L 25.2637 -7.20703 L 22.5098 -4.46289 L 21.8848 -5.07812 C 21.6602 -5.30273 21.6406 -5.40039 21.6699 -5.68359 L 21.7578 -6.64062 L 20.1953 -8.20312 L 18.5742 -7.89062 C 18.291 -7.83203 18.1445 -7.83203 17.9102 -8.07617 L 15.7324 -10.2539 C 15.5078 -10.4883 15.4785 -10.625 15.6055 -10.9473 L 16.5527 -13.2227 C 14.9512 -14.7559 12.8418 -15.6055 10.8008 -14.9512 C 10.7129 -14.9219 10.6445 -14.9414 10.6152 -14.9805 C 10.5859 -15.0293 10.5859 -15.0781 10.6738 -15.1465 Z M 4.10156 2.41211 C 3.61328 1.91406 3.78906 1.61133 4.12109 1.30859 L 15.0781 -8.80859 L 16.3086 -7.57812 L 6.15234 3.34961 C 5.84961 3.68164 5.46875 3.7793 5.06836 3.37891 Z"/>
  </g>
  <text style="stroke:none;fill:black;font-family:-apple-system,&quot;SF Pro Display&quot;,&quot;SF Pro Text&quot;,Helvetica,sans-serif;font-weight:bold;" transform="matrix(1 0 0 1 1289 1953)">Exporting</text>
  <text style="stroke:none;fill:black;font-family:-apple-system,&quot;SF Pro Display&quot;,&quot;SF Pro Text&quot;,Helvetica,sans-serif;" transform="matrix(1 0 0 1 1289 1971)">Symbols should be outlined when exporting to ensure the</text>
  <text style="stroke:none;fill:black;font-family:-apple-system,&quot;SF Pro Display&quot;,&quot;SF Pro Text&quot;,Helvetica,sans-serif;" transform="matrix(1 0 0 1 1289 1989)">design is preserved when submitting to Xcode.</text>
  <text id="template-version" style="stroke:none;fill:black;font-family:-apple-system,&quot;SF Pro Display&quot;,&quot;SF Pro Text&quot;,Helvetica,sans-serif;text-anchor:end;" transform="matrix(1 0 0 1 3036 1933)">Template v.1.0</text>
  <text style="stroke:none;fill:black;font-family:-apple-system,&quot;SF Pro Display&quot;,&quot;SF Pro Text&quot;,Helvetica,sans-serif;text-anchor:end;" transform="matrix(1 0 0 1 3036 1951)">Generated from chart.bar.fill</text>
  <text style="stroke:none;fill:black;font-family:-apple-system,&quot;SF Pro Display&quot;,&quot;SF Pro Text&quot;,Helvetica,sans-serif;text-anchor:end;" transform="matrix(1 0 0 1 3036 1969)">Typeset at 100 points</text>
  <text style="stroke:none;fill:black;font-family:-apple-system,&quot;SF Pro Display&quot;,&quot;SF Pro Text&quot;,Helvetica,sans-serif;" transform="matrix(1 0 0 1 263 726)">Small</text>
  <text style="stroke:none;fill:black;font-family:-apple-system,&quot;SF Pro Display&quot;,&quot;SF Pro Text&quot;,Helvetica,sans-serif;" transform="matrix(1 0 0 1 263 1156)">Medium</text>
  <text style="stroke:none;fill:black;font-family:-apple-system,&quot;SF Pro Display&quot;,&quot;SF Pro Text&quot;,Helvetica,sans-serif;" transform="matrix(1 0 0 1 263 1586)">Large</text>
 </g>
 <g id="Guides">
  <g id="H-reference" style="fill:#27AAE1;stroke:none;" transform="matrix(1 0 0 1 339 696)">
   <path d="M 54.9316 0 L 57.666 0 L 30.5664 -70.459 L 28.0762 -70.459 L 0.976562 0 L 3.66211 0 L 12.9395 -24.4629 L 45.7031 -24.4629 Z M 29.1992 -67.0898 L 29.4434 -67.0898 L 44.8242 -26.709 L 13.8184 -26.709 Z"/>
  </g>
  <line id="Baseline-S" style="fill:none;stroke:#27AAE1;opacity:1;stroke-width:0.577;" x1="263" x2="3036" y1="696" y2="696"/>
  <line id="Capline-S" style="fill:none;stroke:#27AAE1;opacity:1;stroke-width:0.577;" x1="263" x2="3036" y1="625.541" y2="625.541"/>
  <g id="H-reference" style="fill:#27AAE1;stroke:none;" transform="matrix(1 0 0 1 339 1126)">
   <path d="M 54.9316 0 L 57.666 0 L 30.5664 -70.459 L 28.0762 -70.459 L 0.976562 0 L 3.66211 0 L 12.9395 -24.4629 L 45.7031 -24.4629 Z M 29.1992 -67.0898 L 29.4434 -67.0898 L 44.8242 -26.709 L 13.8184 -26.709 Z"/>
  </g>
  <line id="Baseline-M" style="fill:none;stroke:#27AAE1;opacity:1;stroke-width:0.577;" x1="263" x2="3036" y1="1126" y2="1126"/>
  <line id="Capline-M" style="fill:none;stroke:#27AAE1;opacity:1;stroke-width:0.577;" x1="263" x2="3036" y1="1055.54" y2="1055.54"/>
  <g id="H-reference" style="fill:#27AAE1;stroke:none;" transform="matrix(1 0 0 1 339 1556)">
   <path d="M 54.9316 0 L 57.666 0 L 30.5664 -70.459 L 28.0762 -70.459 L 0.976562 0 L 3.66211 0 L 12.9395 -24.4629 L 45.7031 -24.4629 Z M 29.1992 -67.0898 L 29.4434 -67.0898 L 44.8242 -26.709 L 13.8184 -26.709 Z"/>
  </g>
  <line id="Baseline-L" style="fill:none;stroke:#27AAE1;opacity:1;stroke-width:0.577;" x1="263" x2="3036" y1="1556" y2="1556"/>
  <line id="Capline-L" style="fill:none;stroke:#27AAE1;opacity:1;stroke-width:0.577;" x1="263" x2="3036" y1="1485.54" y2="1485.54"/>
  <rect height="119.336" id="left-margin" style="fill:#00AEEF;stroke:none;opacity:0.4;" width="12.4512" x="1376.04" y="1030.79"/>
  <rect height="119.336" id="right-margin" style="fill:#00AEEF;stroke:none;opacity:0.4;" width="12.4512" x="1511.2" y="1030.79"/>
 </g>
 <g id="Symbols">
  <g id="Black-L" transform="matrix(1 0 0 1 2827.27 1556)">
   <path d="M 162.158 25.5371 L 177.148 25.5371 C 189.111 25.5371 196.191 18.3105 196.191 6.88477 L 196.191 -76.8555 C 196.191 -88.2812 189.111 -95.5078 177.148 -95.5078 L 162.158 -95.5078 C 150.244 -95.5078 143.164 -88.2812 143.164 -76.8066 L 143.164 6.88477 C 143.164 18.3105 150.244 25.5371 162.158 25.5371 Z M 98.584 25.5371 L 113.623 25.5371 C 125.537 25.5371 132.617 18.3105 132.617 6.88477 L 132.617 -58.5449 C 132.617 -69.9707 125.537 -77.1973 113.623 -77.1973 L 98.584 -77.1973 C 86.6699 -77.1973 79.5898 -69.9707 79.5898 -58.4961 L 79.5898 6.88477 C 79.5898 18.3105 86.6699 25.5371 98.584 25.5371 Z M 35.0586 25.5371 L 50.0488 25.5371 C 62.0117 25.5371 69.0918 18.3105 69.0918 6.88477 L 69.0918 -39.8926 C 69.0918 -51.2695 62.0117 -58.4961 50.0488 -58.4961 L 35.0586 -58.4961 C 23.1445 -58.4961 16.0645 -51.2695 16.0645 -39.8438 L 16.0645 6.88477 C 16.0645 18.3105 23.1445 25.5371 35.0586 25.5371 Z"/>
  </g>
  <g id="Heavy-L" transform="matrix(1 0 0 1 2533.37 1556)">
   <path d="M 157.178 24.9512 L 173.096 24.9512 C 184.18 24.9512 190.576 18.5059 190.576 7.91016 L 190.576 -77.832 C 190.576 -88.4277 184.18 -94.873 173.096 -94.873 L 157.178 -94.873 C 146.143 -94.873 139.746 -88.4277 139.746 -77.7832 L 139.746 7.91016 C 139.746 18.5059 146.143 24.9512 157.178 24.9512 Z M 95.3613 24.9512 L 111.279 24.9512 C 122.363 24.9512 128.76 18.5059 128.76 7.91016 L 128.76 -59.4727 C 128.76 -70.1172 122.363 -76.5625 111.279 -76.5625 L 95.3613 -76.5625 C 84.2773 -76.5625 77.8809 -70.1172 77.8809 -59.4727 L 77.8809 7.91016 C 77.8809 18.5059 84.2773 24.9512 95.3613 24.9512 Z M 33.4961 24.9512 L 49.4629 24.9512 C 60.498 24.9512 66.8945 18.5059 66.8945 7.91016 L 66.8945 -40.918 C 66.8945 -51.5137 60.498 -58.0078 49.4629 -58.0078 L 33.4961 -58.0078 C 22.4609 -58.0078 16.0645 -51.5137 16.0645 -40.8691 L 16.0645 7.91016 C 16.0645 18.5059 22.4609 24.9512 33.4961 24.9512 Z"/>
  </g>
  <g id="Bold-L" transform="matrix(1 0 0 1 2239.78 1556)">
   <path d="M 151.611 24.3164 L 168.555 24.3164 C 178.662 24.3164 184.326 18.7012 184.326 8.98438 L 184.326 -78.8574 C 184.326 -88.5742 178.662 -94.1895 168.555 -94.1895 L 151.611 -94.1895 C 141.553 -94.1895 135.889 -88.5742 135.889 -78.8574 L 135.889 8.98438 C 135.889 18.7012 141.553 24.3164 151.611 24.3164 Z M 91.6992 24.3164 L 108.643 24.3164 C 118.75 24.3164 124.414 18.7012 124.414 8.98438 L 124.414 -60.5469 C 124.414 -70.2637 118.75 -75.8789 108.643 -75.8789 L 91.6992 -75.8789 C 81.6406 -75.8789 75.9766 -70.2637 75.9766 -60.498 L 75.9766 8.98438 C 75.9766 18.7012 81.6406 24.3164 91.6992 24.3164 Z M 31.7871 24.3164 L 48.7305 24.3164 C 58.8379 24.3164 64.502 18.7012 64.502 8.98438 L 64.502 -42.1387 C 64.502 -51.8066 58.8379 -57.4219 48.7305 -57.4219 L 31.7871 -57.4219 C 21.7285 -57.4219 16.0645 -51.8066 16.0645 -42.0898 L 16.0645 8.98438 C 16.0645 18.7012 21.7285 24.3164 31.7871 24.3164 Z"/>
  </g>
  <g id="Semibold-L" transform="matrix(1 0 0 1 1945.24 1556)">
   <path d="M 147.754 23.877 L 165.43 23.877 C 174.854 23.877 179.98 18.8477 179.98 9.76562 L 179.98 -79.5898 C 179.98 -88.6719 174.854 -93.7012 165.43 -93.7012 L 147.754 -93.7012 C 138.379 -93.7012 133.252 -88.6719 133.252 -79.5898 L 133.252 9.76562 C 133.252 18.8477 138.379 23.877 147.754 23.877 Z M 89.1602 23.877 L 106.836 23.877 C 116.26 23.877 121.387 18.8477 121.387 9.76562 L 121.387 -61.2793 C 121.387 -70.3613 116.26 -75.3906 106.836 -75.3906 L 89.1602 -75.3906 C 79.7852 -75.3906 74.6582 -70.3613 74.6582 -61.2305 L 74.6582 9.76562 C 74.6582 18.8477 79.7852 23.877 89.1602 23.877 Z M 30.5664 23.877 L 48.2422 23.877 C 57.666 23.877 62.793 18.8477 62.793 9.76562 L 62.793 -42.9199 C 62.793 -52.002 57.666 -57.0312 48.2422 -57.0312 L 30.5664 -57.0312 C 21.1914 -57.0312 16.0645 -52.002 16.0645 -42.9199 L 16.0645 9.76562 C 16.0645 18.8477 21.1914 23.877 30.5664 23.877 Z"/>
  </g>
  <g id="Medium-L" transform="matrix(1 0 0 1 1650.17 1556)">
   <path d="M 144.824 23.584 L 163.037 23.584 C 171.973 23.584 176.709 18.9941 176.709 10.3516 L 176.709 -80.1758 C 176.709 -88.7695 171.973 -93.3594 163.037 -93.3594 L 144.824 -93.3594 C 135.986 -93.3594 131.25 -88.7695 131.25 -80.127 L 131.25 10.3516 C 131.25 18.9941 135.986 23.584 144.824 23.584 Z M 87.2559 23.584 L 105.469 23.584 C 114.404 23.584 119.141 18.9941 119.141 10.3516 L 119.141 -61.8164 C 119.141 -70.4102 114.404 -75 105.469 -75 L 87.2559 -75 C 78.3691 -75 73.6328 -70.4102 73.6328 -61.8164 L 73.6328 10.3516 C 73.6328 18.9941 78.3691 23.584 87.2559 23.584 Z M 29.6875 23.584 L 47.9004 23.584 C 56.7871 23.584 61.5234 18.9941 61.5234 10.3516 L 61.5234 -43.5547 C 61.5234 -52.1484 56.7871 -56.7383 47.9004 -56.7383 L 29.6875 -56.7383 C 20.8008 -56.7383 16.0645 -52.1484 16.0645 -43.5547 L 16.0645 10.3516 C 16.0645 18.9941 20.8008 23.584 29.6875 23.584 Z"/>
  </g>
  <g id="Regular-L" transform="matrix(1 0 0 1 1355.58 1556)">
   <path d="M 141.064 23.1445 L 159.961 23.1445 C 168.213 23.1445 172.461 19.1406 172.461 11.1328 L 172.461 -80.8594 C 172.461 -88.8672 168.213 -92.8711 159.961 -92.8711 L 141.064 -92.8711 C 132.861 -92.8711 128.613 -88.8672 128.613 -80.8594 L 128.613 11.1328 C 128.613 19.1406 132.861 23.1445 141.064 23.1445 Z M 84.7656 23.1445 L 103.662 23.1445 C 111.963 23.1445 116.162 19.1406 116.162 11.1328 L 116.162 -62.5488 C 116.162 -70.5078 111.963 -74.5605 103.662 -74.5605 L 84.7656 -74.5605 C 76.5625 -74.5605 72.3633 -70.5078 72.3633 -62.5488 L 72.3633 11.1328 C 72.3633 19.1406 76.5625 23.1445 84.7656 23.1445 Z M 28.4668 23.1445 L 47.4121 23.1445 C 55.6641 23.1445 59.8633 19.1406 59.8633 11.1328 L 59.8633 -44.3359 C 59.8633 -52.3438 55.6641 -56.3477 47.4121 -56.3477 L 28.4668 -56.3477 C 20.2637 -56.3477 16.0645 -52.3438 16.0645 -44.3359 L 16.0645 11.1328 C 16.0645 19.1406 20.2637 23.1445 28.4668 23.1445 Z"/>
  </g>
  <g id="Light-L" transform="matrix(1 0 0 1 1060.21 1556)">
   <path d="M 139.111 22.998 L 158.203 22.998 C 165.869 22.998 169.775 19.2383 169.775 11.6211 L 169.775 -80.957 C 169.775 -88.5742 165.869 -92.334 158.203 -92.334 L 139.111 -92.334 C 131.445 -92.334 127.539 -88.5742 127.539 -80.957 L 127.539 11.6211 C 127.539 19.2383 131.445 22.998 139.111 22.998 Z M 83.3496 22.998 L 102.441 22.998 C 110.107 22.998 114.014 19.2383 114.014 11.6211 L 114.014 -62.6953 C 114.014 -70.3125 110.107 -74.0723 102.441 -74.0723 L 83.3496 -74.0723 C 75.7324 -74.0723 71.8262 -70.3125 71.8262 -62.6953 L 71.8262 11.6211 C 71.8262 19.2383 75.7324 22.998 83.3496 22.998 Z M 27.5879 22.998 L 46.7285 22.998 C 54.3945 22.998 58.3008 19.2383 58.3008 11.6211 L 58.3008 -44.6777 C 58.3008 -52.2949 54.3945 -56.1035 46.7285 -56.1035 L 27.5879 -56.1035 C 19.9707 -56.1035 16.0645 -52.2949 16.0645 -44.6777 L 16.0645 11.6211 C 16.0645 19.2383 19.9707 22.998 27.5879 22.998 Z"/>
  </g>
  <g id="Thin-L" transform="matrix(1 0 0 1 765.26 1556)">
   <path d="M 136.475 22.8516 L 155.908 22.8516 C 162.793 22.8516 166.26 19.3848 166.26 12.2559 L 166.26 -81.0059 C 166.26 -88.1348 162.793 -91.6016 155.908 -91.6016 L 136.475 -91.6016 C 129.639 -91.6016 126.123 -88.1348 126.123 -81.0059 L 126.123 12.2559 C 126.123 19.3848 129.639 22.8516 136.475 22.8516 Z M 81.4453 22.8516 L 100.83 22.8516 C 107.715 22.8516 111.23 19.3848 111.23 12.2559 L 111.23 -62.8906 C 111.23 -70.0195 107.715 -73.4863 100.83 -73.4863 L 81.4453 -73.4863 C 74.6094 -73.4863 71.0938 -70.0195 71.0938 -62.8906 L 71.0938 12.2559 C 71.0938 19.3848 74.6094 22.8516 81.4453 22.8516 Z M 26.416 22.8516 L 45.8008 22.8516 C 52.6855 22.8516 56.2012 19.3848 56.2012 12.2559 L 56.2012 -45.1172 C 56.2012 -52.2461 52.6855 -55.7129 45.8008 -55.7129 L 26.416 -55.7129 C 19.5312 -55.7129 16.0645 -52.2461 16.0645 -45.1172 L 16.0645 12.2559 C 16.0645 19.3848 19.5312 22.8516 26.416 22.8516 Z"/>
  </g>
  <g id="Ultralight-L" transform="matrix(1 0 0 1 469.452 1556)">
   <path d="M 135.156 22.7539 L 154.688 22.7539 C 161.182 22.7539 164.453 19.4336 164.453 12.5977 L 164.453 -81.0547 C 164.453 -87.9395 161.182 -91.2109 154.688 -91.2109 L 135.156 -91.2109 C 128.662 -91.2109 125.391 -87.9395 125.391 -81.0547 L 125.391 12.5977 C 125.391 19.4336 128.662 22.7539 135.156 22.7539 Z M 80.5176 22.7539 L 100.049 22.7539 C 106.494 22.7539 109.766 19.4336 109.766 12.5977 L 109.766 -62.9883 C 109.766 -69.873 106.494 -73.1445 100.049 -73.1445 L 80.5176 -73.1445 C 74.0234 -73.1445 70.752 -69.873 70.752 -62.9883 L 70.752 12.5977 C 70.752 19.4336 74.0234 22.7539 80.5176 22.7539 Z M 25.8301 22.7539 L 45.3613 22.7539 C 51.8555 22.7539 55.127 19.4336 55.127 12.5977 L 55.127 -45.3613 C 55.127 -52.2461 51.8555 -55.5176 45.3613 -55.5176 L 25.8301 -55.5176 C 19.3359 -55.5176 16.0645 -52.2461 16.0645 -45.3613 L 16.0645 12.5977 C 16.0645 19.4336 19.3359 22.7539 25.8301 22.7539 Z"/>
  </g>
  <g id="Black-M" transform="matrix(1 0 0 1 2848.1 1126)">
   <path d="M 131.348 12.5488 L 141.846 12.5488 C 151.953 12.5488 158.154 6.05469 158.154 -3.71094 L 158.154 -66.2598 C 158.154 -75.9766 151.953 -82.4707 141.846 -82.4707 L 131.348 -82.4707 C 121.24 -82.4707 114.99 -75.9766 114.99 -66.2109 L 114.99 -3.71094 C 114.99 6.05469 121.24 12.5488 131.348 12.5488 Z M 80.0781 12.5488 L 90.5762 12.5488 C 100.684 12.5488 106.885 6.05469 106.885 -3.71094 L 106.885 -52.0996 C 106.885 -61.8652 100.684 -68.3594 90.5762 -68.3594 L 80.0781 -68.3594 C 69.9707 -68.3594 63.7207 -61.8652 63.7207 -52.0508 L 63.7207 -3.71094 C 63.7207 6.05469 69.9707 12.5488 80.0781 12.5488 Z M 28.8086 12.5488 L 39.3066 12.5488 C 49.4141 12.5488 55.6152 6.05469 55.6152 -3.71094 L 55.6152 -37.5977 C 55.6152 -47.3145 49.4141 -53.8086 39.3066 -53.8086 L 28.8086 -53.8086 C 18.7012 -53.8086 12.4512 -47.3145 12.4512 -37.5488 L 12.4512 -3.71094 C 12.4512 6.05469 18.7012 12.5488 28.8086 12.5488 Z"/>
  </g>
  <g id="Heavy-M" transform="matrix(1 0 0 1 2554.1 1126)">
   <path d="M 126.416 11.9629 L 137.842 11.9629 C 147.168 11.9629 152.734 6.25 152.734 -2.73438 L 152.734 -67.2852 C 152.734 -76.2207 147.168 -81.9336 137.842 -81.9336 L 126.416 -81.9336 C 117.09 -81.9336 111.523 -76.2207 111.523 -67.2363 L 111.523 -2.73438 C 111.523 6.25 117.09 11.9629 126.416 11.9629 Z M 76.8555 11.9629 L 88.3301 11.9629 C 97.6074 11.9629 103.223 6.25 103.223 -2.73438 L 103.223 -53.125 C 103.223 -62.0605 97.6074 -67.7734 88.3301 -67.7734 L 76.8555 -67.7734 C 67.5781 -67.7734 62.0117 -62.0605 62.0117 -53.0762 L 62.0117 -2.73438 C 62.0117 6.25 67.5781 11.9629 76.8555 11.9629 Z M 27.3438 11.9629 L 38.7695 11.9629 C 48.0957 11.9629 53.6621 6.25 53.6621 -2.73438 L 53.6621 -38.6719 C 53.6621 -47.6074 48.0957 -53.3203 38.7695 -53.3203 L 27.3438 -53.3203 C 18.0176 -53.3203 12.4512 -47.6074 12.4512 -38.623 L 12.4512 -2.73438 C 12.4512 6.25 18.0176 11.9629 27.3438 11.9629 Z"/>
  </g>
  <g id="Bold-M" transform="matrix(1 0 0 1 2260.41 1126)">
   <path d="M 120.898 11.3281 L 133.398 11.3281 C 141.846 11.3281 146.68 6.44531 146.68 -1.61133 L 146.68 -68.4082 C 146.68 -76.4648 141.846 -81.3477 133.398 -81.3477 L 120.898 -81.3477 C 112.5 -81.3477 107.666 -76.4648 107.666 -68.4082 L 107.666 -1.61133 C 107.666 6.44531 112.5 11.3281 120.898 11.3281 Z M 73.291 11.3281 L 85.791 11.3281 C 94.2383 11.3281 99.0723 6.44531 99.0723 -1.61133 L 99.0723 -54.1992 C 99.0723 -62.2559 94.2383 -67.1387 85.791 -67.1387 L 73.291 -67.1387 C 64.8926 -67.1387 60.0586 -62.2559 60.0586 -54.1992 L 60.0586 -1.61133 C 60.0586 6.44531 64.8926 11.3281 73.291 11.3281 Z M 25.6836 11.3281 L 38.2324 11.3281 C 46.6309 11.3281 51.4648 6.44531 51.4648 -1.61133 L 51.4648 -39.8438 C 51.4648 -47.9004 46.6309 -52.7832 38.2324 -52.7832 L 25.6836 -52.7832 C 17.2852 -52.7832 12.4512 -47.9004 12.4512 -39.7949 L 12.4512 -1.61133 C 12.4512 6.44531 17.2852 11.3281 25.6836 11.3281 Z"/>
  </g>
  <g id="Semibold-M" transform="matrix(1 0 0 1 1965.8 1126)">
   <path d="M 117.09 10.8398 L 130.322 10.8398 C 138.135 10.8398 142.48 6.5918 142.48 -0.878906 L 142.48 -69.1895 C 142.48 -76.6602 138.135 -80.957 130.322 -80.957 L 117.09 -80.957 C 109.277 -80.957 104.98 -76.6602 104.98 -69.1895 L 104.98 -0.878906 C 104.98 6.5918 109.277 10.8398 117.09 10.8398 Z M 70.8008 10.8398 L 84.082 10.8398 C 91.8945 10.8398 96.1914 6.5918 96.1914 -0.878906 L 96.1914 -54.9805 C 96.1914 -62.4512 91.8945 -66.6992 84.082 -66.6992 L 70.8008 -66.6992 C 63.0371 -66.6992 58.6914 -62.4512 58.6914 -54.9316 L 58.6914 -0.878906 C 58.6914 6.5918 63.0371 10.8398 70.8008 10.8398 Z M 24.5605 10.8398 L 37.793 10.8398 C 45.6055 10.8398 49.9512 6.5918 49.9512 -0.878906 L 49.9512 -40.6738 C 49.9512 -48.1445 45.6055 -52.3926 37.793 -52.3926 L 24.5605 -52.3926 C 16.7969 -52.3926 12.4512 -48.1445 12.4512 -40.6738 L 12.4512 -0.878906 C 12.4512 6.5918 16.7969 10.8398 24.5605 10.8398 Z"/>
  </g>
  <g id="Medium-M" transform="matrix(1 0 0 1 1670.68 1126)">
   <path d="M 114.209 10.498 L 128.027 10.498 C 135.352 10.498 139.307 6.68945 139.307 -0.292969 L 139.307 -69.7754 C 139.307 -76.8066 135.352 -80.6152 128.027 -80.6152 L 114.209 -80.6152 C 106.885 -80.6152 102.93 -76.8066 102.93 -69.7754 L 102.93 -0.292969 C 102.93 6.68945 106.885 10.498 114.209 10.498 Z M 68.9453 10.498 L 82.7637 10.498 C 90.0879 10.498 94.043 6.68945 94.043 -0.292969 L 94.043 -55.5664 C 94.043 -62.5488 90.0879 -66.4062 82.7637 -66.4062 L 68.9453 -66.4062 C 61.6211 -66.4062 57.7148 -62.5488 57.7148 -55.5664 L 57.7148 -0.292969 C 57.7148 6.68945 61.6211 10.498 68.9453 10.498 Z M 23.6816 10.498 L 37.5 10.498 C 44.873 10.498 48.8281 6.68945 48.8281 -0.292969 L 48.8281 -41.3086 C 48.8281 -48.291 44.873 -52.1484 37.5 -52.1484 L 23.6816 -52.1484 C 16.4062 -52.1484 12.4512 -48.291 12.4512 -41.3086 L 12.4512 -0.292969 C 12.4512 6.68945 16.4062 10.498 23.6816 10.498 Z"/>
  </g>
  <g id="Regular-M" transform="matrix(1 0 0 1 1376.04 1126)">
   <path d="M 110.4 10.0586 L 124.951 10.0586 C 131.689 10.0586 135.156 6.83594 135.156 0.439453 L 135.156 -70.5566 C 135.156 -76.9531 131.689 -80.2246 124.951 -80.2246 L 110.4 -80.2246 C 103.76 -80.2246 100.293 -76.9531 100.293 -70.5566 L 100.293 0.439453 C 100.293 6.83594 103.76 10.0586 110.4 10.0586 Z M 66.5039 10.0586 L 81.0547 10.0586 C 87.793 10.0586 91.2109 6.83594 91.2109 0.439453 L 91.2109 -56.2988 C 91.2109 -62.6953 87.793 -65.9668 81.0547 -65.9668 L 66.5039 -65.9668 C 59.8145 -65.9668 56.3477 -62.6953 56.3477 -56.2988 L 56.3477 0.439453 C 56.3477 6.83594 59.8145 10.0586 66.5039 10.0586 Z M 22.6074 10.0586 L 37.1094 10.0586 C 43.8477 10.0586 47.3145 6.83594 47.3145 0.439453 L 47.3145 -42.0898 C 47.3145 -48.4863 43.8477 -51.7578 37.1094 -51.7578 L 22.6074 -51.7578 C 15.918 -51.7578 12.4512 -48.4863 12.4512 -42.0898 L 12.4512 0.439453 C 12.4512 6.83594 15.918 10.0586 22.6074 10.0586 Z"/>
  </g>
  <g id="Light-M" transform="matrix(1 0 0 1 1080.53 1126)">
   <path d="M 108.691 9.96094 L 123.389 9.96094 C 129.59 9.96094 132.764 6.93359 132.764 0.878906 L 132.764 -70.6055 C 132.764 -76.709 129.59 -79.7363 123.389 -79.7363 L 108.691 -79.7363 C 102.49 -79.7363 99.3164 -76.709 99.3164 -70.6055 L 99.3164 0.878906 C 99.3164 6.93359 102.49 9.96094 108.691 9.96094 Z M 65.2344 9.96094 L 79.9805 9.96094 C 86.1816 9.96094 89.3066 6.93359 89.3066 0.878906 L 89.3066 -56.4453 C 89.3066 -62.5 86.1816 -65.5273 79.9805 -65.5273 L 65.2344 -65.5273 C 59.0332 -65.5273 55.9082 -62.5 55.9082 -56.4453 L 55.9082 0.878906 C 55.9082 6.93359 59.0332 9.96094 65.2344 9.96094 Z M 21.7773 9.96094 L 36.5234 9.96094 C 42.7246 9.96094 45.8984 6.93359 45.8984 0.878906 L 45.8984 -42.4316 C 45.8984 -48.4863 42.7246 -51.5137 36.5234 -51.5137 L 21.7773 -51.5137 C 15.625 -51.5137 12.4512 -48.4863 12.4512 -42.4316 L 12.4512 0.878906 C 12.4512 6.93359 15.625 9.96094 21.7773 9.96094 Z"/>
  </g>
  <g id="Thin-M" transform="matrix(1 0 0 1 785.402 1126)">
   <path d="M 106.348 9.81445 L 121.338 9.81445 C 126.807 9.81445 129.59 7.08008 129.59 1.41602 L 129.59 -70.7031 C 129.59 -76.3184 126.807 -79.0527 121.338 -79.0527 L 106.348 -79.0527 C 100.83 -79.0527 98.0469 -76.3184 98.0469 -70.7031 L 98.0469 1.41602 C 98.0469 7.08008 100.83 9.81445 106.348 9.81445 Z M 63.5254 9.81445 L 78.5156 9.81445 C 84.0332 9.81445 86.8164 7.08008 86.8164 1.41602 L 86.8164 -56.6406 C 86.8164 -62.2559 84.0332 -64.9902 78.5156 -64.9902 L 63.5254 -64.9902 C 58.0566 -64.9902 55.2734 -62.2559 55.2734 -56.6406 L 55.2734 1.41602 C 55.2734 7.08008 58.0566 9.81445 63.5254 9.81445 Z M 20.752 9.81445 L 35.6934 9.81445 C 41.2109 9.81445 43.9941 7.08008 43.9941 1.41602 L 43.9941 -42.8223 C 43.9941 -48.4375 41.2109 -51.1719 35.6934 -51.1719 L 20.752 -51.1719 C 15.2344 -51.1719 12.4512 -48.4375 12.4512 -42.8223 L 12.4512 1.41602 C 12.4512 7.08008 15.2344 9.81445 20.752 9.81445 Z"/>
  </g>
  <g id="Ultralight-M" transform="matrix(1 0 0 1 489.496 1126)">
   <path d="M 105.176 9.7168 L 120.264 9.7168 C 125.391 9.7168 127.979 7.12891 127.979 1.70898 L 127.979 -70.7031 C 127.979 -76.123 125.391 -78.7598 120.264 -78.7598 L 105.176 -78.7598 C 100 -78.7598 97.4121 -76.123 97.4121 -70.7031 L 97.4121 1.70898 C 97.4121 7.12891 100 9.7168 105.176 9.7168 Z M 62.6953 9.7168 L 77.7832 9.7168 C 82.9102 9.7168 85.498 7.12891 85.498 1.70898 L 85.498 -56.6895 C 85.498 -62.1094 82.9102 -64.6973 77.7832 -64.6973 L 62.6953 -64.6973 C 57.5195 -64.6973 54.9316 -62.1094 54.9316 -56.6895 L 54.9316 1.70898 C 54.9316 7.12891 57.5195 9.7168 62.6953 9.7168 Z M 20.2148 9.7168 L 35.3027 9.7168 C 40.4297 9.7168 43.0176 7.12891 43.0176 1.70898 L 43.0176 -43.0176 C 43.0176 -48.3887 40.4297 -51.0254 35.3027 -51.0254 L 20.2148 -51.0254 C 15.0391 -51.0254 12.4512 -48.3887 12.4512 -43.0176 L 12.4512 1.70898 C 12.4512 7.12891 15.0391 9.7168 20.2148 9.7168 Z"/>
  </g>
  <g id="Black-S" transform="matrix(1 0 0 1 2866.75 696)">
   <path d="M 102.539 2.14844 L 110.84 2.14844 C 118.701 2.14844 123.535 -2.88086 123.535 -10.4492 L 123.535 -59.6191 C 123.535 -67.1875 118.701 -72.2168 110.84 -72.2168 L 102.539 -72.2168 C 94.6777 -72.2168 89.8438 -67.1875 89.8438 -59.5703 L 89.8438 -10.4492 C 89.8438 -2.88086 94.6777 2.14844 102.539 2.14844 Z M 62.5 2.14844 L 70.8008 2.14844 C 78.6621 2.14844 83.4961 -2.88086 83.4961 -10.4492 L 83.4961 -48.5352 C 83.4961 -56.1035 78.6621 -61.1328 70.8008 -61.1328 L 62.5 -61.1328 C 54.6387 -61.1328 49.8047 -56.1035 49.8047 -48.4863 L 49.8047 -10.4492 C 49.8047 -2.88086 54.6387 2.14844 62.5 2.14844 Z M 22.4609 2.14844 L 30.7617 2.14844 C 38.623 2.14844 43.457 -2.88086 43.457 -10.4492 L 43.457 -37.1582 C 43.457 -44.7266 38.623 -49.7559 30.7617 -49.7559 L 22.4609 -49.7559 C 14.5996 -49.7559 9.76562 -44.7266 9.76562 -37.1094 L 9.76562 -10.4492 C 9.76562 -2.88086 14.5996 2.14844 22.4609 2.14844 Z"/>
  </g>
  <g id="Heavy-S" transform="matrix(1 0 0 1 2571.99 696)">
   <path d="M 98.9746 1.70898 L 107.959 1.70898 C 115.283 1.70898 119.629 -2.73438 119.629 -9.76562 L 119.629 -60.4004 C 119.629 -67.3828 115.283 -71.875 107.959 -71.875 L 98.9746 -71.875 C 91.6504 -71.875 87.3047 -67.3828 87.3047 -60.3516 L 87.3047 -9.76562 C 87.3047 -2.73438 91.6504 1.70898 98.9746 1.70898 Z M 60.2051 1.70898 L 69.1895 1.70898 C 76.5137 1.70898 80.8594 -2.73438 80.8594 -9.76562 L 80.8594 -49.2676 C 80.8594 -56.2988 76.5137 -60.7422 69.1895 -60.7422 L 60.2051 -60.7422 C 52.8809 -60.7422 48.5352 -56.2988 48.5352 -49.2188 L 48.5352 -9.76562 C 48.5352 -2.73438 52.8809 1.70898 60.2051 1.70898 Z M 21.4355 1.70898 L 30.4199 1.70898 C 37.7441 1.70898 42.0898 -2.73438 42.0898 -9.76562 L 42.0898 -37.9395 C 42.0898 -44.9219 37.7441 -49.4141 30.4199 -49.4141 L 21.4355 -49.4141 C 14.1113 -49.4141 9.76562 -44.9219 9.76562 -37.8906 L 9.76562 -9.76562 C 9.76562 -2.73438 14.1113 1.70898 21.4355 1.70898 Z"/>
  </g>
  <g id="Bold-S" transform="matrix(1 0 0 1 2277.45 696)">
   <path d="M 94.9707 1.2207 L 104.785 1.2207 C 111.475 1.2207 115.283 -2.58789 115.283 -8.98438 L 115.283 -61.2793 C 115.283 -67.627 111.475 -71.4844 104.785 -71.4844 L 94.9707 -71.4844 C 88.2812 -71.4844 84.4238 -67.627 84.4238 -61.2305 L 84.4238 -8.98438 C 84.4238 -2.58789 88.2812 1.2207 94.9707 1.2207 Z M 57.6172 1.2207 L 67.4316 1.2207 C 74.1211 1.2207 77.9297 -2.58789 77.9297 -8.98438 L 77.9297 -50.0977 C 77.9297 -56.4941 74.1211 -60.3027 67.4316 -60.3027 L 57.6172 -60.3027 C 50.9277 -60.3027 47.1191 -56.4941 47.1191 -50.0977 L 47.1191 -8.98438 C 47.1191 -2.58789 50.9277 1.2207 57.6172 1.2207 Z M 20.2637 1.2207 L 30.0781 1.2207 C 36.7676 1.2207 40.625 -2.58789 40.625 -8.98438 L 40.625 -38.8184 C 40.625 -45.166 36.7676 -49.0234 30.0781 -49.0234 L 20.2637 -49.0234 C 13.623 -49.0234 9.76562 -45.166 9.76562 -38.7695 L 9.76562 -8.98438 C 9.76562 -2.58789 13.623 1.2207 20.2637 1.2207 Z"/>
  </g>
  <g id="Semibold-S" transform="matrix(1 0 0 1 1982.23 696)">
   <path d="M 92.1875 0.927734 L 102.539 0.927734 C 108.838 0.927734 112.305 -2.49023 112.305 -8.44727 L 112.305 -61.8652 C 112.305 -67.7734 108.838 -71.1914 102.539 -71.1914 L 92.1875 -71.1914 C 85.9375 -71.1914 82.4707 -67.7734 82.4707 -61.8164 L 82.4707 -8.44727 C 82.4707 -2.49023 85.9375 0.927734 92.1875 0.927734 Z M 55.8594 0.927734 L 66.2109 0.927734 C 72.4609 0.927734 75.9277 -2.49023 75.9277 -8.44727 L 75.9277 -50.6836 C 75.9277 -56.5918 72.4609 -60.0098 66.2109 -60.0098 L 55.8594 -60.0098 C 49.6094 -60.0098 46.1426 -56.5918 46.1426 -50.6836 L 46.1426 -8.44727 C 46.1426 -2.49023 49.6094 0.927734 55.8594 0.927734 Z M 19.4824 0.927734 L 29.834 0.927734 C 36.084 0.927734 39.5996 -2.49023 39.5996 -8.44727 L 39.5996 -39.4043 C 39.5996 -45.3613 36.084 -48.7793 29.834 -48.7793 L 19.4824 -48.7793 C 13.2324 -48.7793 9.76562 -45.3613 9.76562 -39.4043 L 9.76562 -8.44727 C 9.76562 -2.49023 13.2324 0.927734 19.4824 0.927734 Z"/>
  </g>
  <g id="Medium-S" transform="matrix(1 0 0 1 1686.67 696)">
   <path d="M 90.0879 0.634766 L 100.879 0.634766 C 106.836 0.634766 110.01 -2.44141 110.01 -8.00781 L 110.01 -62.3047 C 110.01 -67.9199 106.836 -70.9961 100.879 -70.9961 L 90.0879 -70.9961 C 84.1797 -70.9961 81.0059 -67.9199 81.0059 -62.3047 L 81.0059 -8.00781 C 81.0059 -2.44141 84.1797 0.634766 90.0879 0.634766 Z M 54.4922 0.634766 L 65.2344 0.634766 C 71.1914 0.634766 74.4141 -2.44141 74.4141 -8.00781 L 74.4141 -51.123 C 74.4141 -56.7383 71.1914 -59.8145 65.2344 -59.8145 L 54.4922 -59.8145 C 48.584 -59.8145 45.3613 -56.7383 45.3613 -51.123 L 45.3613 -8.00781 C 45.3613 -2.44141 48.584 0.634766 54.4922 0.634766 Z M 18.8965 0.634766 L 29.6387 0.634766 C 35.5957 0.634766 38.7695 -2.44141 38.7695 -8.00781 L 38.7695 -39.8926 C 38.7695 -45.459 35.5957 -48.584 29.6387 -48.584 L 18.8965 -48.584 C 12.9395 -48.584 9.76562 -45.459 9.76562 -39.8926 L 9.76562 -8.00781 C 9.76562 -2.44141 12.9395 0.634766 18.8965 0.634766 Z"/>
  </g>
  <g id="Regular-S" transform="matrix(1 0 0 1 1391.45 696)">
   <path d="M 87.3535 0.341797 L 98.6816 0.341797 C 104.199 0.341797 107.031 -2.34375 107.031 -7.51953 L 107.031 -62.8906 C 107.031 -68.0664 104.199 -70.7031 98.6816 -70.7031 L 87.3535 -70.7031 C 81.8848 -70.7031 79.0527 -68.0664 79.0527 -62.8906 L 79.0527 -7.51953 C 79.0527 -2.34375 81.8848 0.341797 87.3535 0.341797 Z M 52.7344 0.341797 L 64.0625 0.341797 C 69.5801 0.341797 72.4121 -2.34375 72.4121 -7.51953 L 72.4121 -51.6602 C 72.4121 -56.8359 69.5801 -59.5215 64.0625 -59.5215 L 52.7344 -59.5215 C 47.2656 -59.5215 44.3848 -56.8359 44.3848 -51.6602 L 44.3848 -7.51953 C 44.3848 -2.34375 47.2656 0.341797 52.7344 0.341797 Z M 18.0664 0.341797 L 29.3945 0.341797 C 34.9121 0.341797 37.7441 -2.34375 37.7441 -7.51953 L 37.7441 -40.4785 C 37.7441 -45.6543 34.9121 -48.291 29.3945 -48.291 L 18.0664 -48.291 C 12.5977 -48.291 9.76562 -45.6543 9.76562 -40.4785 L 9.76562 -7.51953 C 9.76562 -2.34375 12.5977 0.341797 18.0664 0.341797 Z"/>
  </g>
  <g id="Light-S" transform="matrix(1 0 0 1 1095.78 696)">
   <path d="M 85.8398 0.244141 L 97.2656 0.244141 C 102.344 0.244141 104.932 -2.24609 104.932 -7.12891 L 104.932 -62.9395 C 104.932 -67.8223 102.344 -70.2637 97.2656 -70.2637 L 85.8398 -70.2637 C 80.8105 -70.2637 78.2227 -67.8223 78.2227 -62.9395 L 78.2227 -7.12891 C 78.2227 -2.24609 80.8105 0.244141 85.8398 0.244141 Z M 51.6113 0.244141 L 63.0859 0.244141 C 68.1152 0.244141 70.7031 -2.24609 70.7031 -7.12891 L 70.7031 -51.8066 C 70.7031 -56.6895 68.1152 -59.1309 63.0859 -59.1309 L 51.6113 -59.1309 C 46.582 -59.1309 43.9941 -56.6895 43.9941 -51.8066 L 43.9941 -7.12891 C 43.9941 -2.24609 46.582 0.244141 51.6113 0.244141 Z M 17.3828 0.244141 L 28.8574 0.244141 C 33.9355 0.244141 36.5234 -2.24609 36.5234 -7.12891 L 36.5234 -40.7227 C 36.5234 -45.6055 33.9355 -48.0957 28.8574 -48.0957 L 17.3828 -48.0957 C 12.3535 -48.0957 9.76562 -45.6055 9.76562 -40.7227 L 9.76562 -7.12891 C 9.76562 -2.24609 12.3535 0.244141 17.3828 0.244141 Z"/>
  </g>
  <g id="Thin-S" transform="matrix(1 0 0 1 800.465 696)">
   <path d="M 83.7891 0.0976562 L 95.459 0.0976562 C 99.9023 0.0976562 102.148 -2.14844 102.148 -6.64062 L 102.148 -62.9883 C 102.148 -67.4805 99.9023 -69.7266 95.459 -69.7266 L 83.7891 -69.7266 C 79.3457 -69.7266 77.0996 -67.4805 77.0996 -62.9883 L 77.0996 -6.64062 C 77.0996 -2.14844 79.3457 0.0976562 83.7891 0.0976562 Z M 50.0977 0.0976562 L 61.8164 0.0976562 C 66.2598 0.0976562 68.5059 -2.14844 68.5059 -6.64062 L 68.5059 -51.9531 C 68.5059 -56.4453 66.2598 -58.6426 61.8164 -58.6426 L 50.0977 -58.6426 C 45.7031 -58.6426 43.4082 -56.4453 43.4082 -51.9531 L 43.4082 -6.64062 C 43.4082 -2.14844 45.7031 0.0976562 50.0977 0.0976562 Z M 16.4551 0.0976562 L 28.125 0.0976562 C 32.5684 0.0976562 34.8633 -2.14844 34.8633 -6.64062 L 34.8633 -41.0645 C 34.8633 -45.6055 32.5684 -47.8027 28.125 -47.8027 L 16.4551 -47.8027 C 12.0117 -47.8027 9.76562 -45.6055 9.76562 -41.0645 L 9.76562 -6.64062 C 9.76562 -2.14844 12.0117 0.0976562 16.4551 0.0976562 Z"/>
  </g>
  <g id="Ultralight-S" transform="matrix(1 0 0 1 504.462 696)">
   <path d="M 82.7148 0 L 94.4824 0 C 98.6328 0 100.732 -2.05078 100.732 -6.34766 L 100.732 -63.0371 C 100.732 -67.334 98.6328 -69.3848 94.4824 -69.3848 L 82.7148 -69.3848 C 78.6133 -69.3848 76.5137 -67.334 76.5137 -63.0371 L 76.5137 -6.34766 C 76.5137 -2.05078 78.6133 0 82.7148 0 Z M 49.3652 0 L 61.1328 0 C 65.2832 0 67.334 -2.05078 67.334 -6.34766 L 67.334 -52.0508 C 67.334 -56.3477 65.2832 -58.3984 61.1328 -58.3984 L 49.3652 -58.3984 C 45.2148 -58.3984 43.1152 -56.3477 43.1152 -52.0508 L 43.1152 -6.34766 C 43.1152 -2.05078 45.2148 0 49.3652 0 Z M 15.9668 0 L 27.7832 0 C 31.8848 0 33.9844 -2.05078 33.9844 -6.34766 L 33.9844 -41.2598 C 33.9844 -45.5566 31.8848 -47.6562 27.7832 -47.6562 L 15.9668 -47.6562 C 11.8652 -47.6562 9.76562 -45.5566 9.76562 -41.2598 L 9.76562 -6.34766 C 9.76562 -2.05078 11.8652 0 15.9668 0 Z"/>
  </g>
 </g>
</svg>
