<?xml version="1.0" encoding="UTF-8"?>
<!--Generator: Apple Native CoreSVG 123-->
<!DOCTYPE svg
PUBLIC "-//W3C//DTD SVG 1.1//EN"
       "http://www.w3.org/Graphics/SVG/1.1/DTD/svg11.dtd">
<svg version="1.1" xmlns="http://www.w3.org/2000/svg" xmlns:xlink="http://www.w3.org/1999/xlink" width="3300" height="2200">
 <!--glyph: "uni100242.medium", point size: 100.000000, font version: "Version 15.0d7e11", template writer version: "5"-->
 <g id="Notes">
  <rect height="2200" id="artboard" style="fill:white;opacity:1" width="3300" x="0" y="0"/>
  <line id="" style="fill:none;stroke:black;opacity:1;stroke-width:0.5;" x1="263" x2="3036" y1="292" y2="292"/>
  <text style="stroke:none;fill:black;font-family:-apple-system,&quot;SF Pro Display&quot;,&quot;SF Pro Text&quot;,Helvetica,sans-serif;font-weight:bold;" transform="matrix(1 0 0 1 263 322)">Weight/Scale Variations</text>
  <text style="stroke:none;fill:black;font-family:-apple-system,&quot;SF Pro Display&quot;,&quot;SF Pro Text&quot;,Helvetica,sans-serif;text-anchor:middle;" transform="matrix(1 0 0 1 559.711 322)">Ultralight</text>
  <text style="stroke:none;fill:black;font-family:-apple-system,&quot;SF Pro Display&quot;,&quot;SF Pro Text&quot;,Helvetica,sans-serif;text-anchor:middle;" transform="matrix(1 0 0 1 856.422 322)">Thin</text>
  <text style="stroke:none;fill:black;font-family:-apple-system,&quot;SF Pro Display&quot;,&quot;SF Pro Text&quot;,Helvetica,sans-serif;text-anchor:middle;" transform="matrix(1 0 0 1 1153.13 322)">Light</text>
  <text style="stroke:none;fill:black;font-family:-apple-system,&quot;SF Pro Display&quot;,&quot;SF Pro Text&quot;,Helvetica,sans-serif;text-anchor:middle;" transform="matrix(1 0 0 1 1449.84 322)">Regular</text>
  <text style="stroke:none;fill:black;font-family:-apple-system,&quot;SF Pro Display&quot;,&quot;SF Pro Text&quot;,Helvetica,sans-serif;text-anchor:middle;" transform="matrix(1 0 0 1 1746.56 322)">Medium</text>
  <text style="stroke:none;fill:black;font-family:-apple-system,&quot;SF Pro Display&quot;,&quot;SF Pro Text&quot;,Helvetica,sans-serif;text-anchor:middle;" transform="matrix(1 0 0 1 2043.27 322)">Semibold</text>
  <text style="stroke:none;fill:black;font-family:-apple-system,&quot;SF Pro Display&quot;,&quot;SF Pro Text&quot;,Helvetica,sans-serif;text-anchor:middle;" transform="matrix(1 0 0 1 2339.98 322)">Bold</text>
  <text style="stroke:none;fill:black;font-family:-apple-system,&quot;SF Pro Display&quot;,&quot;SF Pro Text&quot;,Helvetica,sans-serif;text-anchor:middle;" transform="matrix(1 0 0 1 2636.69 322)">Heavy</text>
  <text style="stroke:none;fill:black;font-family:-apple-system,&quot;SF Pro Display&quot;,&quot;SF Pro Text&quot;,Helvetica,sans-serif;text-anchor:middle;" transform="matrix(1 0 0 1 2933.4 322)">Black</text>
  <line id="" style="fill:none;stroke:black;opacity:1;stroke-width:0.5;" x1="263" x2="3036" y1="1903" y2="1903"/>
  <g id="" transform="matrix(1 0 0 1 263 1933)">
   <path d="M 9.24805 0.830078 C 13.5547 0.830078 17.1387 -2.74414 17.1387 -7.05078 C 17.1387 -11.3574 13.5449 -14.9316 9.23828 -14.9316 C 4.94141 -14.9316 1.36719 -11.3574 1.36719 -7.05078 C 1.36719 -2.74414 4.95117 0.830078 9.24805 0.830078 Z M 9.24805 -0.654297 C 5.70312 -0.654297 2.87109 -3.49609 2.87109 -7.05078 C 2.87109 -10.6055 5.69336 -13.4473 9.23828 -13.4473 C 12.793 -13.4473 15.6348 -10.6055 15.6445 -7.05078 C 15.6543 -3.49609 12.8027 -0.654297 9.24805 -0.654297 Z M 9.22852 -3.42773 C 9.69727 -3.42773 9.9707 -3.74023 9.9707 -4.25781 L 9.9707 -6.31836 L 12.1973 -6.31836 C 12.6953 -6.31836 13.0371 -6.57227 13.0371 -7.04102 C 13.0371 -7.51953 12.7148 -7.7832 12.1973 -7.7832 L 9.9707 -7.7832 L 9.9707 -10.0098 C 9.9707 -10.5273 9.69727 -10.8496 9.22852 -10.8496 C 8.75977 -10.8496 8.50586 -10.5078 8.50586 -10.0098 L 8.50586 -7.7832 L 6.29883 -7.7832 C 5.78125 -7.7832 5.44922 -7.51953 5.44922 -7.04102 C 5.44922 -6.57227 5.80078 -6.31836 6.29883 -6.31836 L 8.50586 -6.31836 L 8.50586 -4.25781 C 8.50586 -3.75977 8.75977 -3.42773 9.22852 -3.42773 Z"/>
  </g>
  <g id="" transform="matrix(1 0 0 1 281.506 1933)">
   <path d="M 11.709 2.91016 C 17.1582 2.91016 21.6699 -1.60156 21.6699 -7.05078 C 21.6699 -12.4902 17.1484 -17.0117 11.6992 -17.0117 C 6.25977 -17.0117 1.74805 -12.4902 1.74805 -7.05078 C 1.74805 -1.60156 6.26953 2.91016 11.709 2.91016 Z M 11.709 1.25 C 7.09961 1.25 3.41797 -2.44141 3.41797 -7.05078 C 3.41797 -11.6504 7.08984 -15.3516 11.6992 -15.3516 C 16.3086 -15.3516 20 -11.6504 20.0098 -7.05078 C 20.0195 -2.44141 16.3184 1.25 11.709 1.25 Z M 11.6895 -2.41211 C 12.207 -2.41211 12.5195 -2.77344 12.5195 -3.33984 L 12.5195 -6.23047 L 15.5762 -6.23047 C 16.123 -6.23047 16.5039 -6.51367 16.5039 -7.03125 C 16.5039 -7.55859 16.1426 -7.86133 15.5762 -7.86133 L 12.5195 -7.86133 L 12.5195 -10.9277 C 12.5195 -11.5039 12.207 -11.8555 11.6895 -11.8555 C 11.1719 -11.8555 10.8789 -11.4844 10.8789 -10.9277 L 10.8789 -7.86133 L 7.83203 -7.86133 C 7.26562 -7.86133 6.89453 -7.55859 6.89453 -7.03125 C 6.89453 -6.51367 7.28516 -6.23047 7.83203 -6.23047 L 10.8789 -6.23047 L 10.8789 -3.33984 C 10.8789 -2.79297 11.1719 -2.41211 11.6895 -2.41211 Z"/>
  </g>
  <g id="" transform="matrix(1 0 0 1 304.924 1933)">
   <path d="M 14.9707 5.67383 C 21.9336 5.67383 27.6953 -0.078125 27.6953 -7.04102 C 27.6953 -14.0039 21.9238 -19.7559 14.9609 -19.7559 C 8.00781 -19.7559 2.25586 -14.0039 2.25586 -7.04102 C 2.25586 -0.078125 8.01758 5.67383 14.9707 5.67383 Z M 14.9707 3.85742 C 8.93555 3.85742 4.08203 -1.00586 4.08203 -7.04102 C 4.08203 -13.0762 8.92578 -17.9395 14.9609 -17.9395 C 21.0059 -17.9395 25.8594 -13.0762 25.8691 -7.04102 C 25.8789 -1.00586 21.0156 3.85742 14.9707 3.85742 Z M 14.9512 -1.06445 C 15.5176 -1.06445 15.8691 -1.45508 15.8691 -2.06055 L 15.8691 -6.13281 L 20.1074 -6.13281 C 20.6934 -6.13281 21.1133 -6.46484 21.1133 -7.02148 C 21.1133 -7.59766 20.7227 -7.93945 20.1074 -7.93945 L 15.8691 -7.93945 L 15.8691 -12.1875 C 15.8691 -12.8027 15.5176 -13.1934 14.9512 -13.1934 C 14.3848 -13.1934 14.0625 -12.7832 14.0625 -12.1875 L 14.0625 -7.93945 L 9.83398 -7.93945 C 9.21875 -7.93945 8.80859 -7.59766 8.80859 -7.02148 C 8.80859 -6.46484 9.23828 -6.13281 9.83398 -6.13281 L 14.0625 -6.13281 L 14.0625 -2.06055 C 14.0625 -1.47461 14.3848 -1.06445 14.9512 -1.06445 Z"/>
  </g>
  <text style="stroke:none;fill:black;font-family:-apple-system,&quot;SF Pro Display&quot;,&quot;SF Pro Text&quot;,Helvetica,sans-serif;font-weight:bold;" transform="matrix(1 0 0 1 263 1953)">Design Variations</text>
  <text style="stroke:none;fill:black;font-family:-apple-system,&quot;SF Pro Display&quot;,&quot;SF Pro Text&quot;,Helvetica,sans-serif;" transform="matrix(1 0 0 1 263 1971)">Symbols are supported in up to nine weights and three scales.</text>
  <text style="stroke:none;fill:black;font-family:-apple-system,&quot;SF Pro Display&quot;,&quot;SF Pro Text&quot;,Helvetica,sans-serif;" transform="matrix(1 0 0 1 263 1989)">For optimal layout with text and other symbols, vertically align</text>
  <text style="stroke:none;fill:black;font-family:-apple-system,&quot;SF Pro Display&quot;,&quot;SF Pro Text&quot;,Helvetica,sans-serif;" transform="matrix(1 0 0 1 263 2007)">symbols with the adjacent text.</text>
  <rect height="14" id="" style="fill:#00AEEF;stroke:none;opacity:0.4;" width="3" x="776" y="1919"/>
  <g id="" transform="matrix(1 0 0 1 779 1933)">
   <path d="M 10.5273 0 L 12.373 0 L 7.17773 -14.0918 L 5.43945 -14.0918 L 0.244141 0 L 2.08984 0 L 3.50586 -4.0332 L 9.11133 -4.0332 Z M 6.2793 -11.9531 L 6.33789 -11.9531 L 8.59375 -5.52734 L 4.02344 -5.52734 Z"/>
  </g>
  <rect height="14" id="" style="fill:#00AEEF;stroke:none;opacity:0.4;" width="3" x="791.617" y="1919"/>
  <text style="stroke:none;fill:black;font-family:-apple-system,&quot;SF Pro Display&quot;,&quot;SF Pro Text&quot;,Helvetica,sans-serif;font-weight:bold;" transform="matrix(1 0 0 1 776 1953)">Margins</text>
  <text style="stroke:none;fill:black;font-family:-apple-system,&quot;SF Pro Display&quot;,&quot;SF Pro Text&quot;,Helvetica,sans-serif;" transform="matrix(1 0 0 1 776 1971)">Leading and trailing margins on the left and right side of each symbol</text>
  <text style="stroke:none;fill:black;font-family:-apple-system,&quot;SF Pro Display&quot;,&quot;SF Pro Text&quot;,Helvetica,sans-serif;" transform="matrix(1 0 0 1 776 1989)">can be adjusted by modifying the width of the blue rectangles.</text>
  <text style="stroke:none;fill:black;font-family:-apple-system,&quot;SF Pro Display&quot;,&quot;SF Pro Text&quot;,Helvetica,sans-serif;" transform="matrix(1 0 0 1 776 2007)">Modifications are automatically applied proportionally to all</text>
  <text style="stroke:none;fill:black;font-family:-apple-system,&quot;SF Pro Display&quot;,&quot;SF Pro Text&quot;,Helvetica,sans-serif;" transform="matrix(1 0 0 1 776 2025)">scales and weights.</text>
  <g id="" transform="matrix(1 0 0 1 1289 1933)">
   <path d="M 2.83203 3.11523 L 4.375 4.6582 C 5.22461 5.48828 6.19141 5.41992 7.06055 4.46289 L 17.2754 -6.66016 C 17.7051 -6.36719 18.0957 -6.37695 18.5645 -6.47461 L 19.6094 -6.68945 L 20.3027 -5.99609 L 20.2539 -5.47852 C 20.1855 -4.95117 20.3516 -4.53125 20.8496 -4.0332 L 21.6602 -3.22266 C 22.168 -2.71484 22.8223 -2.68555 23.3008 -3.16406 L 26.5527 -6.41602 C 27.0312 -6.89453 27.0117 -7.54883 26.5039 -8.05664 L 25.6836 -8.87695 C 25.1855 -9.375 24.7754 -9.55078 24.2383 -9.47266 L 23.7109 -9.41406 L 23.0566 -10.0781 L 23.3398 -11.2207 C 23.4863 -11.7871 23.3398 -12.2559 22.7148 -12.8613 L 20.3027 -15.2539 C 16.7578 -18.7793 12.2266 -18.6719 9.11133 -15.5371 C 8.69141 -15.1074 8.64258 -14.5215 8.91602 -14.0918 C 9.15039 -13.7207 9.62891 -13.4961 10.2734 -13.6621 C 11.7871 -14.043 13.3008 -13.9258 14.7852 -12.9199 L 14.1602 -11.3379 C 13.9258 -10.752 13.9453 -10.2734 14.1797 -9.83398 L 3.01758 0.439453 C 2.08008 1.30859 1.97266 2.25586 2.83203 3.11523 Z M 10.6738 -15.1465 C 13.3398 -17.1387 16.6504 -16.8262 19.0527 -14.4141 L 21.6797 -11.8066 C 21.9141 -11.5723 21.9434 -11.3867 21.8848 -11.0938 L 21.5039 -9.53125 L 23.0762 -7.95898 L 24.043 -8.04688 C 24.3262 -8.07617 24.4141 -8.05664 24.6387 -7.83203 L 25.2637 -7.20703 L 22.5098 -4.46289 L 21.8848 -5.07812 C 21.6602 -5.30273 21.6406 -5.40039 21.6699 -5.68359 L 21.7578 -6.64062 L 20.1953 -8.20312 L 18.5742 -7.89062 C 18.291 -7.83203 18.1445 -7.83203 17.9102 -8.07617 L 15.7324 -10.2539 C 15.5078 -10.4883 15.4785 -10.625 15.6055 -10.9473 L 16.5527 -13.2227 C 14.9512 -14.7559 12.8418 -15.6055 10.8008 -14.9512 C 10.7129 -14.9219 10.6445 -14.9414 10.6152 -14.9805 C 10.5859 -15.0293 10.5859 -15.0781 10.6738 -15.1465 Z M 4.10156 2.41211 C 3.61328 1.91406 3.78906 1.61133 4.12109 1.30859 L 15.0781 -8.80859 L 16.3086 -7.57812 L 6.15234 3.34961 C 5.84961 3.68164 5.46875 3.7793 5.06836 3.37891 Z"/>
  </g>
  <text style="stroke:none;fill:black;font-family:-apple-system,&quot;SF Pro Display&quot;,&quot;SF Pro Text&quot;,Helvetica,sans-serif;font-weight:bold;" transform="matrix(1 0 0 1 1289 1953)">Exporting</text>
  <text style="stroke:none;fill:black;font-family:-apple-system,&quot;SF Pro Display&quot;,&quot;SF Pro Text&quot;,Helvetica,sans-serif;" transform="matrix(1 0 0 1 1289 1971)">Symbols should be outlined when exporting to ensure the</text>
  <text style="stroke:none;fill:black;font-family:-apple-system,&quot;SF Pro Display&quot;,&quot;SF Pro Text&quot;,Helvetica,sans-serif;" transform="matrix(1 0 0 1 1289 1989)">design is preserved when submitting to Xcode.</text>
  <text id="template-version" style="stroke:none;fill:black;font-family:-apple-system,&quot;SF Pro Display&quot;,&quot;SF Pro Text&quot;,Helvetica,sans-serif;text-anchor:end;" transform="matrix(1 0 0 1 3036 1933)">Template v.1.0</text>
  <text style="stroke:none;fill:black;font-family:-apple-system,&quot;SF Pro Display&quot;,&quot;SF Pro Text&quot;,Helvetica,sans-serif;text-anchor:end;" transform="matrix(1 0 0 1 3036 1951)">Generated from doc.on.doc.fill</text>
  <text style="stroke:none;fill:black;font-family:-apple-system,&quot;SF Pro Display&quot;,&quot;SF Pro Text&quot;,Helvetica,sans-serif;text-anchor:end;" transform="matrix(1 0 0 1 3036 1969)">Typeset at 100 points</text>
  <text style="stroke:none;fill:black;font-family:-apple-system,&quot;SF Pro Display&quot;,&quot;SF Pro Text&quot;,Helvetica,sans-serif;" transform="matrix(1 0 0 1 263 726)">Small</text>
  <text style="stroke:none;fill:black;font-family:-apple-system,&quot;SF Pro Display&quot;,&quot;SF Pro Text&quot;,Helvetica,sans-serif;" transform="matrix(1 0 0 1 263 1156)">Medium</text>
  <text style="stroke:none;fill:black;font-family:-apple-system,&quot;SF Pro Display&quot;,&quot;SF Pro Text&quot;,Helvetica,sans-serif;" transform="matrix(1 0 0 1 263 1586)">Large</text>
 </g>
 <g id="Guides">
  <g id="H-reference" style="fill:#27AAE1;stroke:none;" transform="matrix(1 0 0 1 339 696)">
   <path d="M 54.9316 0 L 57.666 0 L 30.5664 -70.459 L 28.0762 -70.459 L 0.976562 0 L 3.66211 0 L 12.9395 -24.4629 L 45.7031 -24.4629 Z M 29.1992 -67.0898 L 29.4434 -67.0898 L 44.8242 -26.709 L 13.8184 -26.709 Z"/>
  </g>
  <line id="Baseline-S" style="fill:none;stroke:#27AAE1;opacity:1;stroke-width:0.577;" x1="263" x2="3036" y1="696" y2="696"/>
  <line id="Capline-S" style="fill:none;stroke:#27AAE1;opacity:1;stroke-width:0.577;" x1="263" x2="3036" y1="625.541" y2="625.541"/>
  <g id="H-reference" style="fill:#27AAE1;stroke:none;" transform="matrix(1 0 0 1 339 1126)">
   <path d="M 54.9316 0 L 57.666 0 L 30.5664 -70.459 L 28.0762 -70.459 L 0.976562 0 L 3.66211 0 L 12.9395 -24.4629 L 45.7031 -24.4629 Z M 29.1992 -67.0898 L 29.4434 -67.0898 L 44.8242 -26.709 L 13.8184 -26.709 Z"/>
  </g>
  <line id="Baseline-M" style="fill:none;stroke:#27AAE1;opacity:1;stroke-width:0.577;" x1="263" x2="3036" y1="1126" y2="1126"/>
  <line id="Capline-M" style="fill:none;stroke:#27AAE1;opacity:1;stroke-width:0.577;" x1="263" x2="3036" y1="1055.54" y2="1055.54"/>
  <g id="H-reference" style="fill:#27AAE1;stroke:none;" transform="matrix(1 0 0 1 339 1556)">
   <path d="M 54.9316 0 L 57.666 0 L 30.5664 -70.459 L 28.0762 -70.459 L 0.976562 0 L 3.66211 0 L 12.9395 -24.4629 L 45.7031 -24.4629 Z M 29.1992 -67.0898 L 29.4434 -67.0898 L 44.8242 -26.709 L 13.8184 -26.709 Z"/>
  </g>
  <line id="Baseline-L" style="fill:none;stroke:#27AAE1;opacity:1;stroke-width:0.577;" x1="263" x2="3036" y1="1556" y2="1556"/>
  <line id="Capline-L" style="fill:none;stroke:#27AAE1;opacity:1;stroke-width:0.577;" x1="263" x2="3036" y1="1485.54" y2="1485.54"/>
  <rect height="119.336" id="left-margin" style="fill:#00AEEF;stroke:none;opacity:0.4;" width="12.4512" x="1386.37" y="1030.79"/>
  <rect height="119.336" id="right-margin" style="fill:#00AEEF;stroke:none;opacity:0.4;" width="12.4512" x="1500.87" y="1030.79"/>
 </g>
 <g id="Symbols">
  <g id="Black-L" transform="matrix(1 0 0 1 2844.61 1556)">
   <path d="M 136.426 16.8945 L 137.695 16.8945 C 152.881 16.8945 161.523 8.20312 161.523 -7.03125 L 161.523 -69.5312 L 121.191 -69.5312 C 115.283 -69.5312 110.596 -74.2188 110.596 -80.0781 L 110.596 -120.605 L 76.123 -120.605 C 60.9375 -120.605 52.3438 -111.914 52.3438 -96.6797 L 52.3438 -95.752 L 60.791 -95.752 C 73.5352 -95.752 81.0547 -93.3594 90.332 -84.2773 L 124.756 -50.4395 C 134.082 -41.3086 136.426 -33.5449 136.426 -20.9473 Z M 124.463 -80.0781 L 158.838 -80.0781 C 158.691 -82.7637 156.494 -85.3516 153.418 -88.4766 L 129.297 -112.744 C 126.465 -115.625 123.975 -117.773 121.191 -117.92 L 121.191 -83.3984 C 121.191 -81.1035 122.217 -80.0781 124.463 -80.0781 Z M 39.8926 49.2676 L 101.221 49.2676 C 116.406 49.2676 125 40.625 125 25.3906 L 125 -21.4844 L 73.9746 -21.4844 C 65.9668 -21.4844 61.5723 -25.9277 61.5723 -33.8867 L 61.5723 -85.1562 L 39.8926 -85.1562 C 24.707 -85.1562 16.0645 -76.5137 16.0645 -61.2793 L 16.0645 25.3906 C 16.0645 40.625 24.707 49.2676 39.8926 49.2676 Z M 76.8066 -32.9102 L 122.168 -32.959 C 121.924 -36.4258 119.043 -39.7949 114.99 -43.8477 L 83.5938 -75.3906 C 79.8828 -79.1504 76.5137 -81.9824 72.9492 -82.3242 L 72.9492 -36.7676 C 72.9492 -34.1309 74.2188 -32.9102 76.8066 -32.9102 Z"/>
  </g>
  <g id="Heavy-L" transform="matrix(1 0 0 1 2549.65 1556)">
   <path d="M 133.203 16.0645 L 135.352 16.0645 C 149.902 16.0645 158.008 7.95898 158.008 -6.64062 L 158.008 -68.8477 L 118.311 -68.8477 C 112.305 -68.8477 107.861 -73.291 107.861 -79.248 L 107.861 -119.189 L 73.8281 -119.189 C 59.3262 -119.189 51.2207 -111.084 51.2207 -96.4355 L 51.2207 -94.7754 L 59.7656 -94.7754 C 71.4355 -94.7754 78.6621 -92.4316 87.2559 -83.9355 L 122.217 -49.4141 C 130.859 -40.8691 133.203 -33.4473 133.203 -21.9727 Z M 121.045 -78.6133 L 155.322 -78.6133 C 155.176 -81.1035 153.174 -83.4473 150.342 -86.2793 L 125.098 -111.768 C 122.461 -114.404 120.166 -116.357 117.627 -116.553 L 117.676 -82.0312 C 117.676 -79.6875 118.701 -78.6133 121.045 -78.6133 Z M 38.7207 48.1445 L 100.049 48.1445 C 114.6 48.1445 122.656 39.9902 122.656 25.3906 L 122.656 -22.7539 L 72.998 -22.7539 C 65.0879 -22.7539 60.8398 -27.002 60.8398 -34.8633 L 60.8398 -84.8633 L 38.7207 -84.8633 C 24.1699 -84.8633 16.0645 -76.709 16.0645 -62.1094 L 16.0645 25.3906 C 16.0645 39.9902 24.1211 48.1445 38.7207 48.1445 Z M 75.1953 -33.3008 L 119.824 -33.3496 C 119.482 -36.4746 116.943 -39.5508 113.281 -43.2129 L 81.1035 -75.5859 C 77.6855 -79.0527 74.6582 -81.5918 71.3867 -81.9824 L 71.3867 -37.0605 C 71.3867 -34.5215 72.6562 -33.3008 75.1953 -33.3008 Z"/>
  </g>
  <g id="Bold-L" transform="matrix(1 0 0 1 2254.92 1556)">
   <path d="M 129.639 15.1855 L 132.764 15.1855 C 146.582 15.1855 154.053 7.61719 154.053 -6.25 L 154.053 -68.0664 L 115.088 -68.0664 C 108.936 -68.0664 104.785 -72.2656 104.785 -78.3691 L 104.785 -117.627 L 71.2891 -117.627 C 57.4707 -117.627 49.9512 -110.107 49.9512 -96.1914 L 49.9512 -93.6523 L 58.6914 -93.6523 C 69.0918 -93.6523 75.9766 -91.3574 83.8379 -83.5938 L 119.385 -48.2422 C 127.295 -40.4297 129.639 -33.3496 129.639 -23.0957 Z M 117.188 -77.002 L 151.416 -77.002 C 151.172 -79.1992 149.463 -81.2988 146.924 -83.7891 L 120.41 -110.645 C 118.018 -113.037 115.918 -114.795 113.672 -114.99 L 113.721 -80.5176 C 113.721 -78.0762 114.746 -77.002 117.188 -77.002 Z M 37.4023 46.8262 L 98.7305 46.8262 C 112.598 46.8262 120.068 39.2578 120.068 25.3418 L 120.068 -24.1211 L 71.9238 -24.1211 C 64.1113 -24.1211 60.0586 -28.1738 60.0586 -35.9863 L 60.0586 -84.4727 L 37.4023 -84.4727 C 23.584 -84.4727 16.0645 -76.9531 16.0645 -63.0371 L 16.0645 25.3418 C 16.0645 39.3066 23.5352 46.8262 37.4023 46.8262 Z M 73.3887 -33.7402 L 117.236 -33.7402 C 116.797 -36.5723 114.6 -39.3066 111.377 -42.5293 L 78.3203 -75.8301 C 75.293 -78.9551 72.5098 -81.1523 69.6777 -81.6406 L 69.6777 -37.4512 C 69.6777 -34.9609 70.8984 -33.7402 73.3887 -33.7402 Z"/>
  </g>
  <g id="Semibold-L" transform="matrix(1 0 0 1 1959.58 1556)">
   <path d="M 127.197 14.5508 L 130.957 14.5508 C 144.287 14.5508 151.318 7.42188 151.318 -6.00586 L 151.318 -67.5781 L 112.842 -67.5781 C 106.641 -67.5781 102.637 -71.5332 102.637 -77.7344 L 102.637 -116.553 L 69.5312 -116.553 C 56.2012 -116.553 49.0723 -109.424 49.0723 -95.9961 L 49.0723 -92.8711 L 57.9102 -92.8711 C 67.4805 -92.8711 74.1211 -90.625 81.4941 -83.3496 L 117.432 -47.4609 C 124.854 -40.0879 127.197 -33.3008 127.197 -23.877 Z M 114.551 -75.8789 L 148.682 -75.8789 C 148.438 -77.8809 146.875 -79.7852 144.58 -82.1289 L 117.139 -109.863 C 114.941 -112.109 113.037 -113.672 110.938 -113.916 L 110.986 -79.4922 C 110.986 -76.9531 112.061 -75.8789 114.551 -75.8789 Z M 36.4746 45.8984 L 97.8516 45.8984 C 111.182 45.8984 118.262 38.7695 118.262 25.3418 L 118.262 -25.0977 L 71.1426 -25.0977 C 63.4277 -25.0977 59.5215 -29.0039 59.5215 -36.7188 L 59.5215 -84.2285 L 36.4746 -84.2285 C 23.1445 -84.2285 16.0645 -77.0996 16.0645 -63.6719 L 16.0645 25.3418 C 16.0645 38.8184 23.0957 45.8984 36.4746 45.8984 Z M 72.168 -34.0332 L 115.43 -34.0332 C 114.941 -36.6211 112.988 -39.1113 110.01 -42.0898 L 76.416 -76.0254 C 73.584 -78.8574 71.0449 -80.8594 68.457 -81.3965 L 68.457 -37.6953 C 68.457 -35.2539 69.6777 -34.0332 72.168 -34.0332 Z"/>
  </g>
  <g id="Medium-L" transform="matrix(1 0 0 1 1663.89 1556)">
   <path d="M 125.293 14.1113 L 129.59 14.1113 C 142.529 14.1113 149.268 7.27539 149.268 -5.81055 L 149.268 -67.1387 L 111.182 -67.1387 C 104.883 -67.1387 101.025 -70.9961 101.025 -77.2461 L 101.025 -115.723 L 68.1641 -115.723 C 55.2246 -115.723 48.4375 -108.887 48.4375 -95.8496 L 48.4375 -92.2852 L 57.3242 -92.2852 C 66.2598 -92.2852 72.7539 -90.0879 79.6875 -83.1543 L 115.967 -46.8262 C 122.949 -39.8438 125.293 -33.2031 125.293 -24.4629 Z M 112.549 -75 L 146.631 -75 C 146.387 -76.9043 144.922 -78.6621 142.773 -80.8594 L 114.697 -109.277 C 112.598 -111.426 110.791 -112.842 108.887 -113.135 L 108.936 -78.6621 C 108.936 -76.123 110.01 -75 112.549 -75 Z M 35.791 45.2148 L 97.168 45.2148 C 110.156 45.2148 116.895 38.4277 116.895 25.3418 L 116.895 -25.8301 L 70.6055 -25.8301 C 62.8906 -25.8301 59.1309 -29.5898 59.1309 -37.3047 L 59.1309 -84.0332 L 35.791 -84.0332 C 22.8516 -84.0332 16.0645 -77.1973 16.0645 -64.1602 L 16.0645 25.3418 C 16.0645 38.4766 22.8027 45.2148 35.791 45.2148 Z M 71.1914 -34.2773 L 114.062 -34.2773 C 113.525 -36.6699 111.719 -38.9648 109.033 -41.6992 L 74.9512 -76.1719 C 72.3145 -78.8086 69.9707 -80.6641 67.5781 -81.2012 L 67.5781 -37.8906 C 67.5781 -35.4492 68.75 -34.2773 71.1914 -34.2773 Z"/>
  </g>
  <g id="Regular-L" transform="matrix(1 0 0 1 1368.52 1556)">
   <path d="M 122.9 13.4766 L 127.783 13.4766 C 140.283 13.4766 146.582 7.08008 146.582 -5.51758 L 146.582 -66.6504 L 108.936 -66.6504 C 102.588 -66.6504 98.9258 -70.3125 98.9258 -76.6113 L 98.9258 -114.648 L 66.4062 -114.648 C 54.0039 -114.648 47.5586 -108.252 47.5586 -95.6543 L 47.5586 -91.5527 L 56.543 -91.5527 C 64.6973 -91.5527 70.8984 -89.3555 77.3926 -82.8613 L 114.014 -46.0449 C 120.508 -39.5508 122.9 -33.1543 122.9 -25.2441 Z M 109.961 -73.877 L 143.994 -73.877 C 143.652 -75.6348 142.383 -77.1973 140.43 -79.1504 L 111.475 -108.545 C 109.57 -110.498 107.91 -111.768 106.201 -112.061 L 106.25 -77.6367 C 106.25 -75 107.324 -73.877 109.961 -73.877 Z M 34.8633 44.3359 L 96.2891 44.3359 C 108.789 44.3359 115.088 37.9395 115.088 25.3418 L 115.088 -26.7578 L 69.8242 -26.7578 C 62.207 -26.7578 58.5938 -30.4199 58.5938 -38.0371 L 58.5938 -83.7891 L 34.8633 -83.7891 C 22.4609 -83.7891 16.0645 -77.3926 16.0645 -64.7949 L 16.0645 25.3418 C 16.0645 37.9883 22.3633 44.3359 34.8633 44.3359 Z M 69.9707 -34.5703 L 112.256 -34.5703 C 111.719 -36.7188 110.156 -38.7695 107.715 -41.2598 L 73.0469 -76.3184 C 70.7031 -78.7598 68.5059 -80.3711 66.4062 -80.957 L 66.4062 -38.1348 C 66.4062 -35.7422 67.5781 -34.5703 69.9707 -34.5703 Z"/>
  </g>
  <g id="Light-L" transform="matrix(1 0 0 1 1072.59 1556)">
   <path d="M 120.605 13.5254 L 127.197 13.5254 C 138.965 13.5254 145.02 7.42188 145.02 -4.44336 L 145.02 -66.0645 L 106.982 -66.0645 C 100.928 -66.0645 97.4121 -69.6289 97.4121 -75.6836 L 97.4121 -113.916 L 65.0879 -113.916 C 53.418 -113.916 47.2168 -107.764 47.2168 -95.9473 L 47.2168 -90.4297 L 57.2266 -90.4297 C 64.3555 -90.4297 69.3848 -88.7207 75.0488 -83.0566 L 112.891 -44.9219 C 118.604 -39.209 120.605 -34.082 120.605 -27.0508 Z M 107.666 -72.4121 L 143.018 -72.4121 C 142.725 -73.877 141.602 -75.1953 139.99 -76.7578 L 108.105 -108.936 C 106.543 -110.498 105.127 -111.621 103.711 -111.914 L 103.76 -76.3672 C 103.76 -73.6328 104.932 -72.4121 107.666 -72.4121 Z M 33.9355 43.6035 L 96.0449 43.6035 C 107.861 43.6035 113.916 37.5 113.916 25.6348 L 113.916 -28.3203 L 69.1406 -28.3203 C 62.1582 -28.3203 58.7891 -31.7383 58.7891 -38.7695 L 58.7891 -83.7891 L 33.9355 -83.7891 C 22.2168 -83.7891 16.0645 -77.6855 16.0645 -65.8203 L 16.0645 25.6348 C 16.0645 37.5488 22.1191 43.6035 33.9355 43.6035 Z M 69.5312 -35.0098 L 111.768 -35.0098 C 111.328 -36.7676 109.912 -38.4277 108.008 -40.3809 L 70.8496 -77.832 C 68.9453 -79.7852 67.1875 -81.1523 65.4785 -81.5918 L 65.4785 -39.0625 C 65.4785 -36.3281 66.748 -35.0098 69.5312 -35.0098 Z"/>
  </g>
  <g id="Thin-L" transform="matrix(1 0 0 1 776.906 1556)">
   <path d="M 117.529 13.623 L 126.367 13.623 C 137.256 13.623 142.969 7.86133 142.969 -2.97852 L 142.969 -65.2832 L 104.395 -65.2832 C 98.6816 -65.2832 95.3613 -68.7012 95.3613 -74.4629 L 95.3613 -112.891 L 63.3301 -112.891 C 52.6367 -112.891 46.6797 -107.178 46.6797 -96.2891 L 46.6797 -88.9648 L 58.0566 -88.9648 C 63.8672 -88.9648 67.334 -87.8418 71.9727 -83.252 L 111.377 -43.4082 C 116.064 -38.7207 117.529 -35.3516 117.529 -29.4922 Z M 104.688 -70.459 L 141.699 -70.459 C 141.504 -71.5332 140.527 -72.5098 139.404 -73.584 L 103.613 -109.424 C 102.539 -110.547 101.465 -111.475 100.488 -111.719 L 100.488 -74.6582 C 100.488 -71.7773 101.807 -70.459 104.688 -70.459 Z M 32.666 42.6758 L 95.752 42.6758 C 106.641 42.6758 112.354 36.9141 112.354 26.0742 L 112.354 -30.3711 L 68.2617 -30.3711 C 62.0605 -30.3711 59.0332 -33.4961 59.0332 -39.6973 L 59.0332 -83.8379 L 32.666 -83.8379 C 21.9238 -83.8379 16.0645 -78.125 16.0645 -67.2363 L 16.0645 26.0742 C 16.0645 36.9629 21.7773 42.6758 32.666 42.6758 Z M 68.8965 -35.5957 L 111.084 -35.5957 C 110.84 -36.8652 109.668 -38.0371 108.447 -39.2578 L 67.9199 -79.834 C 66.6992 -81.1035 65.4297 -82.1777 64.2578 -82.4707 L 64.2578 -40.2832 C 64.2578 -37.0605 65.7227 -35.5957 68.8965 -35.5957 Z"/>
  </g>
  <g id="Ultralight-L" transform="matrix(1 0 0 1 480.732 1556)">
   <path d="M 116.016 13.623 L 125.977 13.623 C 136.328 13.623 141.895 8.10547 141.895 -2.24609 L 141.895 -64.9414 L 103.076 -64.9414 C 97.5586 -64.9414 94.2871 -68.2617 94.2871 -73.8281 L 94.2871 -112.402 L 62.4512 -112.402 C 52.1973 -112.402 46.4355 -106.836 46.4355 -96.4844 L 46.4355 -88.2324 L 58.4961 -88.2324 C 63.623 -88.2324 66.3086 -87.4023 70.4102 -83.3496 L 110.596 -42.627 C 114.746 -38.4277 116.016 -35.9863 116.016 -30.7129 Z M 103.125 -69.4336 L 141.016 -69.4336 C 140.918 -70.3125 139.99 -71.0938 139.111 -71.9727 L 101.318 -109.717 C 100.488 -110.547 99.6094 -111.377 98.8281 -111.621 L 98.8281 -73.7793 C 98.8281 -70.8496 100.195 -69.4336 103.125 -69.4336 Z M 31.9824 42.1875 L 95.6055 42.1875 C 106.006 42.1875 111.523 36.6699 111.523 26.2695 L 111.523 -31.4453 L 67.7734 -31.4453 C 62.0605 -31.4453 59.1309 -34.4238 59.1309 -40.1855 L 59.1309 -83.8379 L 31.9824 -83.8379 C 21.7773 -83.8379 16.0645 -78.3203 16.0645 -67.9199 L 16.0645 26.2695 C 16.0645 36.6211 21.6309 42.1875 31.9824 42.1875 Z M 68.6035 -35.8887 L 110.693 -35.8887 C 110.596 -36.9141 109.521 -37.8418 108.643 -38.6719 L 66.4062 -80.8594 C 65.5273 -81.7383 64.502 -82.7148 63.623 -82.959 L 63.623 -40.8691 C 63.623 -37.4512 65.1855 -35.8887 68.6035 -35.8887 Z"/>
  </g>
  <g id="Black-M" transform="matrix(1 0 0 1 2862.65 1126)">
   <path d="M 108.789 6.29883 L 109.521 6.29883 C 121.777 6.29883 129.053 -0.976562 129.053 -13.2324 L 129.053 -62.4023 L 96.7773 -62.4023 C 92.4805 -62.4023 88.5742 -66.3086 88.5742 -70.6055 L 88.5742 -102.881 L 61.377 -102.881 C 49.1211 -102.881 41.8457 -95.6055 41.8457 -83.3496 L 41.8457 -82.8613 L 48.7793 -82.8613 C 59.6191 -82.8613 65.2344 -81.2012 72.9004 -73.7793 L 99.5117 -47.8027 C 107.227 -40.2832 108.789 -34.5703 108.789 -23.7793 Z M 99.8535 -71.1914 L 127.295 -71.1914 C 127.295 -73.3887 125.342 -75.5859 122.754 -78.1738 L 104.053 -96.8262 C 101.758 -99.1699 99.707 -101.025 97.3633 -101.074 L 97.3633 -73.6816 C 97.3633 -72.0215 98.1934 -71.1914 99.8535 -71.1914 Z M 31.9824 31.4453 L 79.8828 31.4453 C 92.1387 31.4453 99.4141 24.1699 99.4141 11.9141 L 99.4141 -23.7305 L 58.252 -23.7305 C 52.2949 -23.7305 48.7305 -27.2949 48.7305 -33.252 L 48.7305 -74.3652 L 31.9824 -74.3652 C 19.7266 -74.3652 12.4512 -67.0898 12.4512 -54.834 L 12.4512 11.9141 C 12.4512 24.1699 19.7266 31.4453 31.9824 31.4453 Z M 61.4746 -33.1055 L 97.5586 -33.2031 C 97.5098 -36.084 95.0195 -38.9648 91.6016 -42.2852 L 66.9922 -66.8457 C 63.916 -69.9219 61.1328 -72.4121 58.1543 -72.5098 L 58.1543 -36.4258 C 58.1543 -34.1797 59.2285 -33.1055 61.4746 -33.1055 Z"/>
  </g>
  <g id="Heavy-M" transform="matrix(1 0 0 1 2567.65 1126)">
   <path d="M 105.908 5.37109 L 107.129 5.37109 C 118.896 5.37109 125.635 -1.36719 125.635 -13.1348 L 125.635 -61.8164 L 94.0918 -61.8164 C 89.6484 -61.8164 85.9863 -65.4785 85.9863 -69.9219 L 85.9863 -101.562 L 59.2285 -101.562 C 47.5098 -101.562 40.7227 -94.7754 40.7227 -83.0078 L 40.7227 -82.0801 L 47.5586 -82.0801 C 57.4219 -82.0801 63.0371 -80.3223 70.166 -73.3398 L 97.0215 -46.9727 C 104.199 -39.9414 105.908 -34.2285 105.908 -24.4141 Z M 96.7285 -69.9707 L 123.73 -69.9707 C 123.633 -72.0215 121.924 -74.0234 119.531 -76.3672 L 100.342 -95.6543 C 98.1934 -97.8516 96.2891 -99.5117 94.1406 -99.6094 L 94.1406 -72.5586 C 94.1406 -70.8008 94.9707 -69.9707 96.7285 -69.9707 Z M 30.957 30.3711 L 78.6621 30.3711 C 90.4297 30.3711 97.168 23.584 97.168 11.8164 L 97.168 -24.707 L 57.373 -24.707 C 51.3672 -24.707 47.9492 -28.125 47.9492 -34.1309 L 47.9492 -74.0234 L 30.957 -74.0234 C 19.1895 -74.0234 12.4512 -67.2363 12.4512 -55.4688 L 12.4512 11.8164 C 12.4512 23.6328 19.1895 30.3711 30.957 30.3711 Z M 59.8145 -33.4473 L 95.166 -33.4961 C 94.9707 -36.1328 92.7734 -38.7695 89.6484 -41.8457 L 64.8438 -66.6992 C 61.9629 -69.5312 59.4238 -71.7773 56.6895 -72.0215 L 56.6895 -36.5723 C 56.6895 -34.4727 57.7148 -33.4473 59.8145 -33.4473 Z"/>
  </g>
  <g id="Bold-M" transform="matrix(1 0 0 1 2272.86 1126)">
   <path d="M 102.686 4.39453 L 104.443 4.39453 C 115.625 4.39453 121.777 -1.80664 121.777 -13.0371 L 121.777 -61.1816 L 91.1621 -61.1816 C 86.4746 -61.1816 83.1055 -64.5508 83.1055 -69.2383 L 83.1055 -100.049 L 56.7871 -100.049 C 45.6543 -100.049 39.4531 -93.8477 39.4531 -82.6172 L 39.4531 -81.2012 L 46.1426 -81.2012 C 54.9805 -81.2012 60.5469 -79.3945 67.0898 -72.9004 L 94.2383 -46.0449 C 100.83 -39.5508 102.686 -33.8379 102.686 -25.0977 Z M 93.1641 -68.6035 L 119.727 -68.6035 C 119.58 -70.459 118.066 -72.2656 115.918 -74.4141 L 96.1914 -94.3359 C 94.1895 -96.3379 92.4316 -97.8516 90.5273 -97.998 L 90.5762 -71.2402 C 90.5762 -69.4336 91.3574 -68.6035 93.1641 -68.6035 Z M 29.7852 29.1504 L 77.2949 29.1504 C 88.4766 29.1504 94.6289 22.9492 94.6289 11.7188 L 94.6289 -25.7812 L 56.3965 -25.7812 C 50.293 -25.7812 47.0215 -29.0039 47.0215 -35.1562 L 47.0215 -73.6328 L 29.7852 -73.6328 C 18.6035 -73.6328 12.4512 -67.3828 12.4512 -56.2012 L 12.4512 11.7188 C 12.4512 22.9492 18.6035 29.1504 29.7852 29.1504 Z M 57.959 -33.7891 L 92.4316 -33.8379 C 92.1387 -36.2305 90.2344 -38.5254 87.4512 -41.3086 L 62.4512 -66.5527 C 59.8145 -69.1406 57.5195 -71.0938 55.0781 -71.3867 L 55.0781 -36.7188 C 55.0781 -34.7656 56.0059 -33.7891 57.959 -33.7891 Z"/>
  </g>
  <g id="Semibold-M" transform="matrix(1 0 0 1 1977.47 1126)">
   <path d="M 100.439 3.71094 L 102.588 3.71094 C 113.379 3.71094 119.141 -2.14844 119.141 -12.9883 L 119.141 -60.6934 L 89.1113 -60.6934 C 84.2773 -60.6934 81.0547 -63.916 81.0547 -68.7012 L 81.0547 -99.0234 L 55.127 -99.0234 C 44.3848 -99.0234 38.623 -93.2129 38.623 -82.373 L 38.623 -80.5664 L 45.166 -80.5664 C 53.2715 -80.5664 58.8379 -78.7109 64.9902 -72.6074 L 92.334 -45.4102 C 98.5352 -39.2578 100.439 -33.5449 100.439 -25.5859 Z M 90.7715 -67.6758 L 116.943 -67.6758 C 116.797 -69.4336 115.43 -71.0449 113.428 -73.0469 L 93.3105 -93.4082 C 91.4551 -95.3125 89.7949 -96.6797 88.0371 -96.8262 L 88.0859 -70.3613 C 88.0859 -68.5059 88.8672 -67.6758 90.7715 -67.6758 Z M 29.0039 28.3203 L 76.3672 28.3203 C 87.1582 28.3203 92.9199 22.5098 92.9199 11.6699 L 92.9199 -26.5137 L 55.7129 -26.5137 C 49.5605 -26.5137 46.3867 -29.6387 46.3867 -35.8398 L 46.3867 -73.3398 L 29.0039 -73.3398 C 18.2129 -73.3398 12.4512 -67.5293 12.4512 -56.6895 L 12.4512 11.6699 C 12.4512 22.5098 18.2129 28.3203 29.0039 28.3203 Z M 56.6895 -34.0332 L 90.5762 -34.0332 C 90.1855 -36.2793 88.5254 -38.3789 85.9375 -40.9668 L 60.791 -66.4062 C 58.3496 -68.8965 56.2012 -70.6055 53.9551 -70.9961 L 53.9551 -36.8164 C 53.9551 -34.9609 54.834 -34.0332 56.6895 -34.0332 Z"/>
  </g>
  <g id="Medium-M" transform="matrix(1 0 0 1 1681.76 1126)">
   <path d="M 98.7305 3.17383 L 101.221 3.17383 C 111.67 3.17383 117.139 -2.34375 117.139 -12.8906 L 117.139 -60.3516 L 87.5977 -60.3516 C 82.6172 -60.3516 79.541 -63.4277 79.541 -68.3594 L 79.541 -98.2422 L 53.9062 -98.2422 C 43.457 -98.2422 37.9395 -92.7246 37.9395 -82.1777 L 37.9395 -80.127 L 44.4336 -80.127 C 52.002 -80.127 57.5195 -78.2227 63.3789 -72.3633 L 90.918 -44.9219 C 96.7773 -39.0625 98.7305 -33.3496 98.7305 -25.9766 Z M 88.916 -66.9434 L 114.844 -66.9434 C 114.648 -68.6035 113.428 -70.1172 111.572 -72.0215 L 91.1621 -92.7246 C 89.3555 -94.5801 87.8418 -95.8008 86.1816 -95.9961 L 86.1816 -69.7266 C 86.1816 -67.7734 86.9629 -66.9434 88.916 -66.9434 Z M 28.3691 27.6855 L 75.6836 27.6855 C 86.1328 27.6855 91.6016 22.168 91.6016 11.6211 L 91.6016 -27.0508 L 55.1758 -27.0508 C 48.9746 -27.0508 45.9473 -30.127 45.9473 -36.3281 L 45.9473 -73.1445 L 28.3691 -73.1445 C 17.9199 -73.1445 12.4512 -67.5781 12.4512 -57.0312 L 12.4512 11.6211 C 12.4512 22.168 17.9199 27.6855 28.3691 27.6855 Z M 55.7617 -34.2285 L 89.1602 -34.2285 C 88.7207 -36.3281 87.207 -38.2812 84.8145 -40.7227 L 59.5215 -66.3574 C 57.2266 -68.6523 55.1758 -70.2148 53.0762 -70.7031 L 53.0762 -36.8652 C 53.0762 -35.1074 53.9551 -34.2285 55.7617 -34.2285 Z"/>
  </g>
  <g id="Regular-M" transform="matrix(1 0 0 1 1386.37 1126)">
   <path d="M 96.5332 2.49023 L 99.3652 2.49023 C 109.473 2.49023 114.502 -2.63672 114.502 -12.8418 L 114.502 -59.9121 L 85.5469 -59.9121 C 80.4688 -59.9121 77.5879 -62.793 77.5879 -67.8711 L 77.5879 -97.2168 L 52.2461 -97.2168 C 42.1875 -97.2168 37.1094 -92.0898 37.1094 -81.8848 L 37.1094 -79.4922 L 43.457 -79.4922 C 50.3418 -79.4922 55.8105 -77.5391 61.2793 -72.0703 L 89.0137 -44.2871 C 94.4824 -38.7695 96.5332 -33.1055 96.5332 -26.4648 Z M 86.5234 -66.0156 L 112.158 -66.0156 C 111.865 -67.5781 110.84 -68.9453 109.082 -70.6543 L 88.3301 -91.8457 C 86.6211 -93.5547 85.2051 -94.6289 83.6914 -94.873 L 83.7402 -68.8477 C 83.7402 -66.8457 84.5215 -66.0156 86.5234 -66.0156 Z M 27.5879 26.8555 L 74.7559 26.8555 C 84.8145 26.8555 89.8438 21.7285 89.8438 11.5234 L 89.8438 -27.7832 L 54.541 -27.7832 C 48.2422 -27.7832 45.3125 -30.7617 45.3125 -37.0117 L 45.3125 -72.8516 L 27.5879 -72.8516 C 17.5293 -72.8516 12.4512 -67.7246 12.4512 -57.5195 L 12.4512 11.5234 C 12.4512 21.7773 17.4805 26.8555 27.5879 26.8555 Z M 54.4922 -34.4727 L 87.3047 -34.4727 C 86.7676 -36.377 85.4492 -38.1348 83.3008 -40.3809 L 57.8613 -66.2109 C 55.7617 -68.4082 53.8574 -69.7266 51.9531 -70.2637 L 51.9531 -36.9629 C 51.9531 -35.3027 52.832 -34.4727 54.4922 -34.4727 Z"/>
  </g>
  <g id="Light-M" transform="matrix(1 0 0 1 1090.36 1126)">
   <path d="M 94.4824 2.53906 L 98.8281 2.53906 C 108.301 2.53906 113.086 -2.34375 113.086 -11.8652 L 113.086 -59.375 L 83.7891 -59.375 C 78.9551 -59.375 76.1719 -62.207 76.1719 -66.9922 L 76.1719 -96.5332 L 51.0254 -96.5332 C 41.6504 -96.5332 36.7676 -91.6504 36.7676 -82.1289 L 36.7676 -78.5156 L 44.043 -78.5156 C 50 -78.5156 54.4434 -76.9531 59.1797 -72.2168 L 87.9883 -43.2617 C 92.7734 -38.4766 94.4824 -33.9355 94.4824 -28.0762 Z M 84.4727 -64.6973 L 111.279 -64.6973 C 111.035 -65.9668 110.107 -67.0898 108.691 -68.5059 L 85.3027 -92.1875 C 83.9355 -93.5547 82.7148 -94.5312 81.4941 -94.7266 L 81.543 -67.6758 C 81.543 -65.5762 82.373 -64.6973 84.4727 -64.6973 Z M 26.709 26.2207 L 74.5605 26.2207 C 83.9844 26.2207 88.8184 21.3379 88.8184 11.8164 L 88.8184 -29.1992 L 53.9062 -29.1992 C 48.1934 -29.1992 45.459 -31.9336 45.459 -37.6465 L 45.459 -72.8516 L 26.709 -72.8516 C 17.334 -72.8516 12.4512 -68.0176 12.4512 -58.4961 L 12.4512 11.8164 C 12.4512 21.3379 17.2852 26.2207 26.709 26.2207 Z M 54.1016 -34.8633 L 86.8164 -34.8633 C 86.4746 -36.4258 85.3027 -37.8418 83.5938 -39.5996 L 55.9082 -67.5781 C 54.1992 -69.2871 52.6855 -70.459 51.123 -70.8496 L 51.123 -37.793 C 51.123 -35.8398 52.0996 -34.8633 54.1016 -34.8633 Z"/>
  </g>
  <g id="Thin-M" transform="matrix(1 0 0 1 794.581 1126)">
   <path d="M 91.748 2.58789 L 98.0957 2.58789 C 106.738 2.58789 111.23 -1.9043 111.23 -10.5469 L 111.23 -58.6914 L 81.4941 -58.6914 C 76.9531 -58.6914 74.3164 -61.377 74.3164 -65.8691 L 74.3164 -95.6543 L 49.4629 -95.6543 C 40.9668 -95.6543 36.2793 -91.1133 36.2793 -82.4707 L 36.2793 -77.1973 L 44.8242 -77.1973 C 49.6094 -77.1973 52.6367 -76.1719 56.4453 -72.3633 L 86.6211 -41.8945 C 90.4785 -38.0371 91.748 -35.0586 91.748 -30.2734 Z M 81.7871 -62.9395 L 110.107 -62.9395 C 109.961 -63.8672 109.131 -64.6973 108.203 -65.625 L 81.2988 -92.627 C 80.3223 -93.6035 79.4434 -94.3359 78.5645 -94.5312 L 78.5645 -66.1621 C 78.5645 -63.9648 79.5898 -62.9395 81.7871 -62.9395 Z M 25.5859 25.3418 L 74.2676 25.3418 C 82.9102 25.3418 87.4023 20.8008 87.4023 12.1582 L 87.4023 -31.0059 L 53.0762 -31.0059 C 48.1445 -31.0059 45.7031 -33.5449 45.7031 -38.4766 L 45.7031 -72.9004 L 25.5859 -72.9004 C 17.041 -72.9004 12.4512 -68.3594 12.4512 -59.7168 L 12.4512 12.1582 C 12.4512 20.8496 16.9434 25.3418 25.5859 25.3418 Z M 53.5156 -35.4004 L 86.2305 -35.4004 C 86.0352 -36.4746 85.0586 -37.5 83.9355 -38.623 L 53.2715 -69.3848 C 52.1973 -70.459 51.0742 -71.3867 50.0488 -71.6797 L 50.0488 -38.8672 C 50.0488 -36.5234 51.1719 -35.4004 53.5156 -35.4004 Z"/>
  </g>
  <g id="Ultralight-M" transform="matrix(1 0 0 1 498.334 1126)">
   <path d="M 90.3809 2.63672 L 97.7539 2.63672 C 105.957 2.63672 110.303 -1.70898 110.303 -9.91211 L 110.303 -58.3496 L 80.2734 -58.3496 C 75.9277 -58.3496 73.3887 -60.9863 73.3887 -65.332 L 73.3887 -95.166 L 48.6816 -95.166 C 40.5762 -95.166 36.0352 -90.8203 36.0352 -82.6172 L 36.0352 -76.5137 L 45.2148 -76.5137 C 49.4141 -76.5137 51.709 -75.7812 55.0293 -72.4609 L 85.9375 -41.2109 C 89.3066 -37.793 90.3809 -35.5957 90.3809 -31.3477 Z M 80.4199 -62.0605 L 109.521 -62.0605 C 109.375 -62.793 108.643 -63.4766 107.91 -64.209 L 79.1992 -92.8711 C 78.4668 -93.6035 77.7344 -94.2871 77.0996 -94.4824 L 77.0996 -65.3809 C 77.0996 -63.1348 78.125 -62.0605 80.4199 -62.0605 Z M 25 24.9023 L 74.1211 24.9023 C 82.3242 24.9023 86.6699 20.5566 86.6699 12.3535 L 86.6699 -31.9824 L 52.6855 -31.9824 C 48.0957 -31.9824 45.8008 -34.3262 45.8008 -38.916 L 45.8008 -72.9004 L 25 -72.9004 C 16.9434 -72.9004 12.4512 -68.5547 12.4512 -60.3516 L 12.4512 12.3535 C 12.4512 20.5566 16.7969 24.9023 25 24.9023 Z M 53.2715 -35.6445 L 85.8887 -35.6445 C 85.791 -36.5234 84.9121 -37.3047 84.1309 -38.0859 L 51.9043 -70.3125 C 51.123 -71.0938 50.293 -71.875 49.5117 -72.0703 L 49.5117 -39.4043 C 49.5117 -36.8652 50.6836 -35.6445 53.2715 -35.6445 Z"/>
  </g>
  <g id="Black-S" transform="matrix(1 0 0 1 2878.08 696)">
   <path d="M 85.0586 -2.7832 L 85.6445 -2.7832 C 95.2148 -2.7832 100.879 -8.44727 100.879 -18.0176 L 100.879 -56.4941 L 75.6348 -56.4941 C 72.2656 -56.4941 69.2383 -59.5215 69.2383 -62.8906 L 69.2383 -88.1348 L 47.9492 -88.1348 C 38.3789 -88.1348 32.7148 -82.4707 32.7148 -72.9004 L 32.7148 -72.5098 L 38.1348 -72.5098 C 46.5332 -72.5098 50.9766 -71.1914 56.9336 -65.3809 L 77.7832 -45.0195 C 83.7891 -39.1602 85.0586 -34.668 85.0586 -26.2695 Z M 78.0273 -63.3301 L 99.4629 -63.3301 C 99.4629 -65.0391 97.9492 -66.748 95.9473 -68.75 L 81.2988 -83.3984 C 79.4922 -85.2051 77.8809 -86.6699 76.0742 -86.7188 L 76.0742 -65.2832 C 76.0742 -63.9648 76.709 -63.3301 78.0273 -63.3301 Z M 25 16.9434 L 62.5 16.9434 C 72.0703 16.9434 77.7344 11.2793 77.7344 1.70898 L 77.7344 -26.2695 L 45.6055 -26.2695 C 40.918 -26.2695 38.1348 -29.0527 38.1348 -33.7402 L 38.1348 -65.8691 L 25 -65.8691 C 15.4297 -65.8691 9.76562 -60.2051 9.76562 -50.6348 L 9.76562 1.70898 C 9.76562 11.2793 15.4297 16.9434 25 16.9434 Z M 48.0469 -33.5938 L 76.2695 -33.6426 C 76.2207 -35.8887 74.2676 -38.1348 71.6309 -40.7227 L 52.3438 -59.9609 C 49.9512 -62.3535 47.8027 -64.3066 45.459 -64.4043 L 45.459 -36.1816 C 45.459 -34.4238 46.2891 -33.5938 48.0469 -33.5938 Z"/>
  </g>
  <g id="Heavy-S" transform="matrix(1 0 0 1 2582.61 696)">
   <path d="M 83.0566 -3.4668 L 83.8867 -3.4668 C 93.1152 -3.4668 98.3887 -8.78906 98.3887 -18.0664 L 98.3887 -56.1035 L 73.8281 -56.1035 C 70.2637 -56.1035 67.3828 -58.9355 67.3828 -62.5 L 67.3828 -87.207 L 46.4355 -87.207 C 37.207 -87.207 31.8848 -81.8848 31.8848 -72.6074 L 31.8848 -72.0215 L 37.1094 -72.0215 C 44.873 -72.0215 49.4141 -70.6055 55.0781 -65.0391 L 76.0254 -44.4824 C 81.6895 -38.916 83.0566 -34.3262 83.0566 -26.5625 Z M 75.8301 -62.5488 L 96.8262 -62.5488 C 96.7773 -64.1602 95.4102 -65.7715 93.5059 -67.627 L 78.8086 -82.4707 C 77.0508 -84.1797 75.5371 -85.5469 73.8281 -85.5957 L 73.877 -64.5508 C 73.877 -63.1836 74.4629 -62.5488 75.8301 -62.5488 Z M 24.3164 16.1621 L 61.5723 16.1621 C 70.8496 16.1621 76.123 10.8887 76.123 1.61133 L 76.123 -26.8555 L 45.0195 -26.8555 C 40.1855 -26.8555 37.5 -29.541 37.5 -34.375 L 37.5 -65.5762 L 24.3164 -65.5762 C 15.0391 -65.5762 9.76562 -60.3027 9.76562 -51.0254 L 9.76562 1.61133 C 9.76562 10.8887 15.0391 16.1621 24.3164 16.1621 Z M 46.8262 -33.7891 L 74.4629 -33.8379 C 74.3164 -35.9375 72.5586 -38.0371 70.1172 -40.4785 L 50.9277 -59.7168 C 48.6328 -61.9629 46.6309 -63.7207 44.4336 -63.916 L 44.4336 -36.1816 C 44.4336 -34.5703 45.2148 -33.7891 46.8262 -33.7891 Z"/>
  </g>
  <g id="Bold-S" transform="matrix(1 0 0 1 2287.27 696)">
   <path d="M 80.8594 -4.24805 L 81.8848 -4.24805 C 90.7715 -4.24805 95.6543 -9.17969 95.6543 -18.0664 L 95.6543 -55.6641 L 71.7773 -55.6641 C 68.0176 -55.6641 65.332 -58.3496 65.332 -62.0605 L 65.332 -86.1328 L 44.7266 -86.1328 C 35.8398 -86.1328 30.957 -81.2012 30.957 -72.2656 L 30.957 -71.4355 L 35.9375 -71.4355 C 43.0664 -71.4355 47.7051 -69.9219 52.9785 -64.6973 L 74.0234 -43.8965 C 79.3457 -38.6719 80.8594 -33.8867 80.8594 -26.9043 Z M 73.3887 -61.6699 L 93.8965 -61.6699 C 93.75 -63.1836 92.5781 -64.6484 90.8203 -66.4062 L 75.9766 -81.3965 C 74.3652 -83.0566 72.9492 -84.2285 71.3867 -84.375 L 71.3867 -63.7207 C 71.3867 -62.3047 71.9727 -61.6699 73.3887 -61.6699 Z M 23.5352 15.332 L 60.5957 15.332 C 69.4824 15.332 74.3164 10.4004 74.3164 1.46484 L 74.3164 -27.4902 L 44.3359 -27.4902 C 39.3555 -27.4902 36.7676 -30.0781 36.7676 -35.0586 L 36.7676 -65.2832 L 23.5352 -65.2832 C 14.6484 -65.2832 9.76562 -60.3516 9.76562 -51.4648 L 9.76562 1.46484 C 9.76562 10.4492 14.6484 15.332 23.5352 15.332 Z M 45.459 -34.0332 L 72.4609 -34.0332 C 72.168 -35.9863 70.6543 -37.8906 68.3594 -40.1855 L 49.3164 -59.4238 C 47.2168 -61.5723 45.3125 -63.1348 43.3105 -63.3789 L 43.3105 -36.1816 C 43.3105 -34.7168 43.9941 -34.0332 45.459 -34.0332 Z"/>
  </g>
  <g id="Semibold-S" transform="matrix(1 0 0 1 1991.51 696)">
   <path d="M 79.2969 -4.78516 L 80.5176 -4.78516 C 89.1602 -4.78516 93.75 -9.42383 93.75 -18.1152 L 93.75 -55.3223 L 70.3613 -55.3223 C 66.4551 -55.3223 63.916 -57.9102 63.916 -61.7188 L 63.916 -85.4004 L 43.5547 -85.4004 C 34.9121 -85.4004 30.3711 -80.7617 30.3711 -72.0703 L 30.3711 -71.0938 L 35.1562 -71.0938 C 41.7969 -71.0938 46.4844 -69.4824 51.5625 -64.4531 L 72.6562 -43.5059 C 77.7344 -38.4766 79.2969 -33.6426 79.2969 -27.1484 Z M 71.7285 -61.0352 L 91.8457 -61.0352 C 91.6992 -62.5 90.625 -63.8672 88.9648 -65.5273 L 74.0723 -80.6641 C 72.4609 -82.2754 71.1426 -83.3496 69.6289 -83.4961 L 69.6777 -63.1348 C 69.6777 -61.6699 70.2637 -61.0352 71.7285 -61.0352 Z M 22.998 14.7461 L 59.8633 14.7461 C 68.5059 14.7461 73.0957 10.1074 73.0957 1.41602 L 73.0957 -27.9297 L 43.8477 -27.9297 C 38.8184 -27.9297 36.2793 -30.4688 36.2793 -35.498 L 36.2793 -65.0879 L 22.998 -65.0879 C 14.3555 -65.0879 9.76562 -60.4492 9.76562 -51.7578 L 9.76562 1.41602 C 9.76562 10.1562 14.3555 14.7461 22.998 14.7461 Z M 44.5312 -34.1797 L 71.0449 -34.1797 C 70.7031 -36.0352 69.3359 -37.793 67.1875 -39.9902 L 48.2422 -59.2285 C 46.1914 -61.2793 44.3848 -62.6953 42.5293 -63.0371 L 42.5293 -36.1816 C 42.5293 -34.8633 43.1641 -34.1797 44.5312 -34.1797 Z"/>
  </g>
  <g id="Medium-S" transform="matrix(1 0 0 1 1695.53 696)">
   <path d="M 78.1738 -5.17578 L 79.4922 -5.17578 C 87.9395 -5.17578 92.2852 -9.61914 92.2852 -18.1152 L 92.2852 -55.127 L 69.2871 -55.127 C 65.2832 -55.127 62.8418 -57.5684 62.8418 -61.5234 L 62.8418 -84.8633 L 42.6758 -84.8633 C 34.2285 -84.8633 29.8828 -80.4199 29.8828 -71.875 L 29.8828 -70.8008 L 34.5703 -70.8008 C 40.8691 -70.8008 45.6055 -69.0918 50.4395 -64.2578 L 71.6309 -43.2129 C 76.4648 -38.3789 78.1738 -33.3984 78.1738 -27.2949 Z M 70.459 -60.5957 L 90.2832 -60.5957 C 90.0879 -62.0117 89.1113 -63.2812 87.5488 -64.8926 L 72.6074 -80.127 C 71.0449 -81.6895 69.7754 -82.7148 68.3594 -82.8613 L 68.4082 -62.6953 C 68.4082 -61.1816 68.9453 -60.5957 70.459 -60.5957 Z M 22.5586 14.3066 L 59.375 14.3066 C 67.8223 14.3066 72.168 9.86328 72.168 1.36719 L 72.168 -28.2715 L 43.5059 -28.2715 C 38.3789 -28.2715 35.9375 -30.7617 35.9375 -35.8398 L 35.9375 -64.8926 L 22.5586 -64.8926 C 14.1113 -64.8926 9.76562 -60.498 9.76562 -51.9531 L 9.76562 1.36719 C 9.76562 9.91211 14.1113 14.3066 22.5586 14.3066 Z M 43.8477 -34.2773 L 70.0195 -34.2773 C 69.6289 -36.0352 68.3594 -37.7441 66.3086 -39.8438 L 47.4121 -59.0332 C 45.4102 -61.084 43.7012 -62.3535 41.8945 -62.7441 L 41.8945 -36.1816 C 41.8945 -34.9121 42.5781 -34.2773 43.8477 -34.2773 Z"/>
  </g>
  <g id="Regular-S" transform="matrix(1 0 0 1 1399.75 696)">
   <path d="M 76.6113 -5.71289 L 78.125 -5.71289 C 86.3281 -5.71289 90.4297 -9.86328 90.4297 -18.1641 L 90.4297 -54.7852 L 67.8711 -54.7852 C 63.7695 -54.7852 61.4746 -57.1289 61.4746 -61.1816 L 61.4746 -84.1309 L 41.5039 -84.1309 C 33.3008 -84.1309 29.248 -79.9805 29.248 -71.6797 L 29.248 -70.4102 L 33.7891 -70.4102 C 39.5996 -70.4102 44.4336 -68.6523 49.0234 -64.0137 L 70.2637 -42.8223 C 74.9023 -38.1836 76.6113 -33.1543 76.6113 -27.5391 Z M 68.7988 -60.0098 L 88.2812 -60.0098 C 88.0371 -61.3281 87.207 -62.5 85.6934 -64.0137 L 70.6543 -79.3945 C 69.1895 -80.9082 67.9688 -81.8359 66.6504 -82.0312 L 66.6992 -62.1094 C 66.6992 -60.5957 67.2363 -60.0098 68.7988 -60.0098 Z M 22.0215 13.7207 L 58.6426 13.7207 C 66.8457 13.7207 70.9473 9.57031 70.9473 1.26953 L 70.9473 -28.7109 L 43.0176 -28.7109 C 37.8418 -28.7109 35.4492 -31.1523 35.4492 -36.3281 L 35.4492 -64.6973 L 22.0215 -64.6973 C 13.8184 -64.6973 9.76562 -60.5469 9.76562 -52.2461 L 9.76562 1.26953 C 9.76562 9.61914 13.8184 13.7207 22.0215 13.7207 Z M 42.9199 -34.4238 L 68.6523 -34.4238 C 68.1641 -36.084 67.041 -37.6465 65.1367 -39.6484 L 46.3379 -58.8379 C 44.4336 -60.791 42.7734 -61.9141 41.1133 -62.4023 L 41.1133 -36.2305 C 41.1133 -35.0586 41.748 -34.4238 42.9199 -34.4238 Z"/>
  </g>
  <g id="Light-S" transform="matrix(1 0 0 1 1103.67 696)">
   <path d="M 74.8047 -5.66406 L 77.6367 -5.66406 C 85.3027 -5.66406 89.1602 -9.57031 89.1602 -17.2852 L 89.1602 -54.3457 L 66.3574 -54.3457 C 62.4512 -54.3457 60.2051 -56.5918 60.2051 -60.4492 L 60.2051 -83.5449 L 40.4785 -83.5449 C 32.8613 -83.5449 28.9551 -79.5898 28.9551 -71.875 L 28.9551 -69.5312 L 34.2773 -69.5312 C 39.3066 -69.5312 43.2129 -68.1641 47.2168 -64.1602 L 69.3359 -41.8945 C 73.3398 -37.8906 74.8047 -33.8867 74.8047 -29.0039 Z M 66.9922 -58.8379 L 87.5 -58.8379 C 87.3047 -59.9121 86.5234 -60.8887 85.3516 -62.1094 L 67.9688 -79.6875 C 66.7969 -80.9082 65.7715 -81.7383 64.6973 -81.8848 L 64.7461 -61.084 C 64.7461 -59.5215 65.3809 -58.8379 66.9922 -58.8379 Z M 21.2891 13.1348 L 58.4961 13.1348 C 66.1133 13.1348 69.9707 9.22852 69.9707 1.51367 L 69.9707 -29.9805 L 42.4805 -29.9805 C 37.793 -29.9805 35.5957 -32.1777 35.5957 -36.8652 L 35.5957 -64.6973 L 21.2891 -64.6973 C 13.6719 -64.6973 9.76562 -60.791 9.76562 -53.0762 L 9.76562 1.51367 C 9.76562 9.27734 13.623 13.1348 21.2891 13.1348 Z M 42.5293 -34.7656 L 68.2129 -34.7656 C 67.8711 -36.1328 66.8945 -37.4023 65.3809 -38.9648 L 44.5801 -60.0586 C 43.0664 -61.5723 41.748 -62.5488 40.3809 -62.9395 L 40.3809 -36.9141 C 40.3809 -35.498 41.1133 -34.7656 42.5293 -34.7656 Z"/>
  </g>
  <g id="Thin-S" transform="matrix(1 0 0 1 807.789 696)">
   <path d="M 72.4121 -5.61523 L 77.002 -5.61523 C 83.9355 -5.61523 87.5 -9.22852 87.5 -16.1621 L 87.5 -53.7598 L 64.3066 -53.7598 C 60.6934 -53.7598 58.5938 -55.8594 58.5938 -59.4727 L 58.5938 -82.7148 L 39.0625 -82.7148 C 32.2266 -82.7148 28.5156 -79.1016 28.5156 -72.168 L 28.5156 -68.3594 L 34.9609 -68.3594 C 38.9648 -68.3594 41.6016 -67.4805 44.7754 -64.3066 L 68.1641 -40.7227 C 71.3379 -37.5 72.4121 -34.8633 72.4121 -30.9082 Z M 64.5996 -57.2754 L 86.4746 -57.2754 C 86.377 -58.0566 85.6934 -58.7891 84.8633 -59.6191 L 64.4531 -80.127 C 63.623 -80.957 62.8906 -81.5918 62.1094 -81.7383 L 62.1582 -59.7656 C 62.1582 -58.0566 62.8906 -57.2754 64.5996 -57.2754 Z M 20.2637 12.4023 L 58.252 12.4023 C 65.1855 12.4023 68.75 8.78906 68.75 1.85547 L 68.75 -31.5918 L 41.748 -31.5918 C 37.7441 -31.5918 35.7422 -33.5938 35.7422 -37.5977 L 35.7422 -64.7461 L 20.2637 -64.7461 C 13.4277 -64.7461 9.76562 -61.1328 9.76562 -54.1992 L 9.76562 1.85547 C 9.76562 8.78906 13.3789 12.4023 20.2637 12.4023 Z M 42.041 -35.2539 L 67.6758 -35.2539 C 67.4805 -36.1816 66.6992 -37.0605 65.7227 -38.0859 L 42.2363 -61.6211 C 41.2598 -62.5977 40.332 -63.3789 39.4531 -63.623 L 39.4531 -37.8906 C 39.4531 -36.084 40.2832 -35.2539 42.041 -35.2539 Z"/>
  </g>
  <g id="Ultralight-S" transform="matrix(1 0 0 1 511.493 696)">
   <path d="M 71.1914 -5.56641 L 76.709 -5.56641 C 83.2031 -5.56641 86.6699 -9.0332 86.6699 -15.5762 L 86.6699 -53.418 L 63.2324 -53.418 C 59.7656 -53.418 57.7637 -55.5176 57.7637 -58.9355 L 57.7637 -82.3242 L 38.3301 -82.3242 C 31.8848 -82.3242 28.3203 -78.8574 28.3203 -72.3145 L 28.3203 -67.7734 L 35.3027 -67.7734 C 38.7695 -67.7734 40.7715 -67.1387 43.5059 -64.4043 L 67.5293 -40.0879 C 70.3125 -37.3047 71.1914 -35.4004 71.1914 -31.8848 Z M 63.3789 -56.4941 L 85.9375 -56.4941 C 85.8398 -57.0801 85.2539 -57.666 84.6191 -58.3008 L 62.6465 -80.3223 C 62.0117 -80.957 61.377 -81.4941 60.791 -81.6406 L 60.791 -59.0332 C 60.791 -57.3242 61.6211 -56.4941 63.3789 -56.4941 Z M 19.7266 12.0117 L 58.1543 12.0117 C 64.6484 12.0117 68.1152 8.54492 68.1152 2.00195 L 68.1152 -32.4219 L 41.4062 -32.4219 C 37.6953 -32.4219 35.8887 -34.3262 35.8887 -37.9883 L 35.8887 -64.7461 L 19.7266 -64.7461 C 13.3301 -64.7461 9.76562 -61.2793 9.76562 -54.7363 L 9.76562 2.00195 C 9.76562 8.54492 13.2324 12.0117 19.7266 12.0117 Z M 41.7969 -35.498 L 67.3828 -35.498 C 67.2852 -36.2305 66.6016 -36.9141 65.8691 -37.5977 L 41.0645 -62.4512 C 40.332 -63.1348 39.5996 -63.8184 38.916 -63.9648 L 38.916 -38.3789 C 38.916 -36.4258 39.8438 -35.498 41.7969 -35.498 Z"/>
  </g>
 </g>
</svg>
